<svg xmlns="http://www.w3.org/2000/svg" width="1440" height="624" fill="none">
  <path fill="#C6C6C6" fill-rule="evenodd" d="m128.898 415.654 7.972-.9-.536-2.198-11.197 1.079 3.761 2.019Z" clip-rule="evenodd"/>
  <path fill="#7AC57C" fill-rule="evenodd" d="M141.128 414.869s1.408 1.254 3.857.627l5.155-26.357 1.237-7.301-.609-3.609s-3.858 3.26-4.515 6.761l-5.125 19.005-1.473 7.477 1.473 3.397Z" clip-rule="evenodd"/>
  <path fill="#7BCD7E" fill-rule="evenodd" d="M123.085 306.611s-.037 4.752 3.916 18.355c0 0 7.769 34.55 8.409 39.877 0 0 .984 8.115 2.251 10.48l1.618 3.44v16.023l-1.618-2.133-8.982-20.408s-1.35-8.51-2.171-11.062c0 0-2.886-12.147-3.155-15.826 0 0-1.885-13.473-1.885-19.478 0 0 .104-9.108-.364-12.797 0 0 .059-4.937 1.02-6.471 0 0 .391-.782.872-.227l.089.227Z" clip-rule="evenodd"/>
  <path fill="#89DE8C" fill-rule="evenodd" d="M119.021 354.309s.911 3.173 1.973 4.982c0 0 10.245 26.181 14.552 53.423 0 0 .316 2.833.696 3.564 0 0 3.838 1.083 4.86-.671 0 0 .538-18.776-5.779-33.018 0 0-8.956-19.027-13.866-25.872l-2.436-2.408Z" clip-rule="evenodd"/>
  <path fill="#C6C6C6" fill-rule="evenodd" d="m160.362 415.633 7.49.63 1.619-1.613-8.981-1.853-.128 2.836Z" clip-rule="evenodd"/>
  <path fill="#7BCD7E" fill-rule="evenodd" d="M161.095 390.058s.488 5.408.488 5.879c0 0-.488 14.642-2.223 21.579 0 0-4.732 1.018-7.358-1.397l4.043-18.204 5.05-7.857Z" clip-rule="evenodd"/>
  <path fill="#89D58C" fill-rule="evenodd" d="M138.923 392.964s-1.932-15.412 0-26.277c0 0 2.672-22.24.49-27.99 0 0-.103-.744.472-.49 0 0 1.766 6.662 1.766 8.999 0 0 1.488 4.104 1.488 7.073 0 0 .589 2.809 2.508 7.041 0 0 2.968 7.196 1.484 22.854 0 0-1.17 12.294-3.507 17.167 0 0-2.631 7.274-2.631 8.049l-2.07-16.426Z" clip-rule="evenodd"/>
  <path fill="#89DE8C" fill-rule="evenodd" d="M144.929 415.758s.91-12.936.91-17.452c0 0 .672-8.312 5.897-21.715 0 0 4.897-12.508 5.514-13.32 0 0 4.569-6.782 5.355-7.489 0 0 .641-.394.641.468 0 0-.143 2.286.593 4.653 0 0 1.204 8.967-.593 14.017 0 0 .201 13.014-5.996 23.832 0 0-.163 8.821-5.514 18.376 0 0-1.583 1.451-4.534.725 0 0-.97-.363-1.363-.725-.365-.337-.91-1.37-.91-1.37Z" clip-rule="evenodd"/>
  <path fill="#72BE74" fill-rule="evenodd" d="M148.409 333.616s3.266 5.157 4.138 12.324c0 0 .946 8.746 1.389 9.102l-2.186 14.001-.964-2.395s.135-3.315-.927-5.298c0 0 .031-1.658.322-4.93 0 0-.325-3.089-1.316-4.472 0 0-1.444-3.768-1.108-6.008 0 0 .146-4.485-.328-7.838 0 0-.324-2.356.328-3.703 0 0 .164-.652.273-.783.108-.13.379 0 .379 0Zm16.623 24.859s7.669-11.242 6.693-21.256c0 0-6.188 10.383-6.188 18.288l-.505 2.968Z" clip-rule="evenodd"/>
  <path fill="#89D58C" fill-rule="evenodd" d="M170.927 346.177s-2.78 12.099-3.808 16.106c0 0-1.719 11.411-1.719 14.072 0 0-.389 5.566 0 7.519 0 0-.894 9.26-3.139 15.894 0 0-1.636 15.598-2.097 17.896 0 0-.308.284-.855 0 0 0 2.483-16.976 2.236-22.491l-.497-5.118 2.797-29.305s1.369-2.669 1.887-3.377c0 0 1.968-3.305 2.962-5.447.738-1.59 2.233-5.749 2.233-5.749Z" clip-rule="evenodd"/>
  <path fill="#7BCD7E" fill-rule="evenodd" d="M148.83 384.111s1.161-14.575 2.914-20.882c0 0 1.675-5.894 1.675-7.404 0 0 3.087-10.751 5.424-14.54 0 0 5.013-9.873 5.843-11.963 0 0 .614-1.499.964-.597 0 0 .536 2.597.536 4.602 0 0 .405 11.531-3.275 17.525 0 0-4.249 9.106-5.025 11.683l-9.056 23.011v-1.435Z" clip-rule="evenodd"/>
  <path fill="#F2F2F2" fill-rule="evenodd" d="M146.961 418.999s-3.363 22.36-1.684 36.296l-15.698-5.321s-5.258-11.734-4.482-36.378l21.864 5.403Z" clip-rule="evenodd"/>
  <path fill="#E0E0E0" fill-rule="evenodd" d="M169.506 414.645s.717 26.763-4.465 36.795l-19.794 3.867s-2-20.563 1.667-36.393l22.592-4.269Z" clip-rule="evenodd"/>
  <path fill="#ECEBEB" fill-rule="evenodd" d="M787.653 23.3048V457.291l115.387-20.706V53.293L787.653 23.3048Z" clip-rule="evenodd"/>
  <path fill="#F7F7F7" fill-rule="evenodd" d="m720.316 46.8051 67.521-23.4849V457.378l-67.521-12.068V46.8051Z" clip-rule="evenodd"/>
  <path fill="#F7F7F7" fill-rule="evenodd" d="M-29 76.9478 720.918 202.676v2.797L-29 100.906V76.9478Z" clip-rule="evenodd"/>
  <path fill="#ECEBEB" fill-rule="evenodd" d="M-29 76.9478 720.326 202.644v.891L-29 85.5368v-8.589Z" clip-rule="evenodd"/>
  <path fill="#F7F7F7" fill-rule="evenodd" d="m69.9445 114.712-3.3683 312.8h21.4446V117.249l-18.0763-2.537Z" clip-rule="evenodd"/>
  <path fill="#ECEBEB" fill-rule="evenodd" d="M82.4766 116.252v311.26h5.544V117.249l-5.544-.997Z" clip-rule="evenodd"/>
  <path fill="#F7F7F7" fill-rule="evenodd" d="M187.704 130.894v283.252h14.388V133.105l-14.388-2.211Z" clip-rule="evenodd"/>
  <path fill="#ECEBEB" fill-rule="evenodd" d="M197.712 132.319v281.827h4.381V133.105l-4.381-.786Z" clip-rule="evenodd"/>
  <path fill="#F7F7F7" fill-rule="evenodd" d="M285.957 144.684v263.954h14.094V146.669l-14.094-1.985Z" clip-rule="evenodd"/>
  <path fill="#ECEBEB" fill-rule="evenodd" d="M297.704 146.286v262.352h2.347V146.669l-2.347-.383Z" clip-rule="evenodd"/>
  <path fill="#F7F7F7" fill-rule="evenodd" d="m10.1406 442.883 711.2204-80.215v-5.529L10.1406 424.224v18.659Z" clip-rule="evenodd"/>
  <path fill="#F7F7F7" fill-rule="evenodd" d="M447.951 166.059V388h8.946V167.08l-8.946-1.021Zm63.805 9.291 7.466 1.067V381h-7.466V175.35Z" clip-rule="evenodd"/>
  <path fill="#E3E3E3" fill-rule="evenodd" d="M720.343 331.796h-20.758s-23.98 2.326-27.54 27.639c0 0-2.895 32.989 27.54 46.626l-1.359 7.158 13.708 1.314 1.991-10.128h-7.941s-29.762-15.916-27.756-44.97c0 0 2.382-20.087 21.357-22.564l20.721-.708c0-1.823.037-4.367.037-4.367Z" clip-rule="evenodd"/>
  <path fill="#F7F7F7" fill-rule="evenodd" d="M570.243 183.673 572.282 377h5.965l-2.622-193.327h-5.382Zm-234.668-70.365v293.625s31.551 8.818 63.102 0V113.308s-10.995-7.867-31.551-7.867c-20.556 0-31.551 7.867-31.551 7.867Z" clip-rule="evenodd"/>
  <path fill="#ECEBEB" fill-rule="evenodd" d="M377.053 410.905c7.208-.633 14.416-1.958 21.624-3.972V113.308s-12.297-6.224-20.957-7.27c-.667 7.27-.667 296.697-.667 304.867Z" clip-rule="evenodd"/>
  <path fill="#F4F4F4" fill-rule="evenodd" d="M1361.57 19.3473V502.361s34.34 21.788 106.43 11.762V13.5931S1443.73.26416 1414.79.26416c-28.95 0-53.22 19.08314-53.22 19.08314Z" clip-rule="evenodd"/>
  <path fill="#F7F7F7" fill-rule="evenodd" d="M1179.93 144.586v261.065l133.2 9.159V114.622l-133.2 29.964Z" clip-rule="evenodd"/>
  <path fill="#E5E5E5" fill-rule="evenodd" d="m902.613 303.925 277.507 12.639v3.983l-277.507-3.983v-12.639Z" clip-rule="evenodd"/>
  <path fill="#F1EFEF" fill-rule="evenodd" d="M943.61 317.181v99.115l2.896-.474v-98.641h-2.896Zm84 1v83.048l2.9-.473v-82.575h-2.9Z" clip-rule="evenodd"/>
  <path fill="#F1EFEF" fill-rule="evenodd" d="m902.795 423.727 277.365-50v2.156l-277.365 51.528v-3.684Z" clip-rule="evenodd"/>
  <path fill="#F2F2F2" fill-rule="evenodd" d="m568.158 416.582 2.66-12.136 29.423 2.153s2.905 4.05 0 6.439l-32.083 3.544Z" clip-rule="evenodd"/>
  <path fill="#F7F7F7" fill-rule="evenodd" d="M554.694 405.105h-4.652l-4.089 8.818c-.297.64.146 1.379.851 1.419l21.354 1.212.572-2.353-14.36-1.526c-.581-.061-.985-.605-.877-1.179l1.201-6.391Z" clip-rule="evenodd"/>
  <path fill="#F2F2F2" fill-rule="evenodd" d="m598.492 417.46 2.058-12.083 30.691 2.221s2.905 4.051 0 6.44l-32.749 3.422Z" clip-rule="evenodd"/>
  <path fill="#F7F7F7" fill-rule="evenodd" d="M585.694 406.105h-4.652l-4.087 8.813c-.297.642.147 1.382.854 1.42l20.695 1.114.417-2.429-13.544-1.354c-.583-.058-.991-.603-.883-1.18l1.2-6.384Z" clip-rule="evenodd"/>
  <path fill="#E3E3E3" fill-rule="evenodd" d="m640.272 332.113-84.87-1.184s-23.98 2.326-27.539 27.639c0 0-2.896 32.988 27.539 46.626l-.95 5.003c-.219 1.157.603 2.252 1.775 2.364l9.721.932c1.023.098 1.955-.596 2.153-1.605l1.172-5.964c.243-1.236-.703-2.386-1.962-2.386h-5.51s-29.762-15.917-27.756-44.97c0 0 2.383-20.087 21.357-22.564l84.87-1.718v-2.173Z" clip-rule="evenodd"/>
  <path fill="#E3E3E3" fill-rule="evenodd" d="m684.875 332.494-98.565-.698s-23.98 2.326-27.54 27.639c0 0-2.895 32.989 27.54 46.626l-.95 5.004c-.22 1.156.602 2.251 1.774 2.364l9.721.931c1.024.098 1.955-.596 2.153-1.605l1.172-5.964c.243-1.236-.703-2.386-1.962-2.386h-5.51s-29.762-15.916-27.755-44.97c0 0 2.382-20.087 21.357-22.564l98.565-2.205s4.011-.338 6.845 0c2.833.339 5.965 1.532 5.965 1.532s-2.754-1.809-5.965-2.737c-3.212-.929-6.845-.967-6.845-.967Zm-139.484-.698h-84.944s-23.98 2.326-27.539 27.639c0 0-2.896 32.989 27.539 46.626l-.95 5.004c-.219 1.156.603 2.251 1.774 2.364l9.722.931c1.023.098 1.955-.596 2.153-1.605l1.172-5.964c.243-1.236-.703-2.386-1.962-2.386h-5.51s-29.762-15.916-27.756-44.97c0 0 2.382-20.087 21.357-22.564l84.944-2.903s4.01-.338 6.844 0c2.834.339 5.966 1.532 5.966 1.532s-2.755-1.809-5.966-2.738c-3.211-.928-6.844-.966-6.844-.966Z" clip-rule="evenodd"/>
  <path fill="#F2F2F2" fill-rule="evenodd" d="m473.158 417.582 2.66-12.136 29.423 2.153s2.905 4.05 0 6.439l-32.083 3.544Z" clip-rule="evenodd"/>
  <path fill="#F7F7F7" fill-rule="evenodd" d="M459.694 406.105h-4.652l-4.089 8.818c-.297.64.146 1.379.851 1.419l21.354 1.212.572-2.353-14.36-1.526c-.581-.061-.985-.605-.877-1.179l1.201-6.391Z" clip-rule="evenodd"/>
  <path fill="#C4CFCF" fill-rule="evenodd" d="M977.305 581c-164.932 0 49.385-29.312-117.61-29.312-47.613 0-42.648-8.369-46.926-11.156-5.9-3.844 11.469-11.737 56.557-11.737 19.816 0 58.898-7.419 74.288-9.044 37.309-3.94 45.019 0 63.396 0 46.37 0 270.23 1.436 270.23 9.044 0 7.607-36.77 11.737 22.11 11.737 56.93 0 11.28 19.977-40.72 19.977-57.78 0-6.99 14.162-117.69 14.162-125.85 0 1.3 6.329-163.635 6.329Z" clip-rule="evenodd" opacity=".1784"/>
  <path fill="#352E28" fill-rule="evenodd" d="M1113.06 121.7c.48.131 2.75 5.228 11.72 7.554 8.98 2.326 8.99 8.63 10.01 10.419 1.02 1.788 1.11 6.674 0 7.932-1.12 1.258-.45-.44-.45-.44s.06-3.725-2.39-7.492c0 0 1.82 5.239-2.38 5.239s-.76-.176-.58-1.762c.18-1.585-.37-3.963-.37-3.963s-.29 4.244-1.81 4.499c-1.53.256-2.03 0-2.03 0s-1.27-3.79-3.16-5.141c-1.88-1.351-4.02-.665-4.77-.875-.76-.209-1.42-.67-1.42-.67s-1.57-7.731-1.79-10.051c-.24-2.603-.58-4.425-.58-5.249Z" clip-rule="evenodd"/>
  <path fill="#20354E" fill-rule="evenodd" d="m1102.06 178.868-9.16-4.502-7.24-13.737-.5-9.239 1.6-2.69 2.99 1.726 4.89 15.652 8.37 10.973-.95 1.817Z" clip-rule="evenodd"/>
  <path fill="#F8CAAB" fill-rule="evenodd" d="M1067.14 119.473s6.99 21.344 18.57 28.754c0 0 5.33 3.866 6.47 4.899 0 0 9.33 2.421 16.84-13.343 0 0 4.09-9.484 4.09-18.253 0 0 2.78 1.417 4.06-2.057 0 0 .18-3.72 1.74-8.438 0 0 1.66-8.131-3.49-9.724h-3.43L1074.73 92l-9.37 15.316 1.78 12.157Z" clip-rule="evenodd"/>
  <path fill="#655547" fill-rule="evenodd" d="M1076.66 92.2408s-.62 3.2982-6.24 8.1292c-5.61 4.831-5.26 8.471-3.34 18.071 0 0-5.32-1.734-5.32-14.295 0 0 .86-13.4032 10.72-23.9664 0 0 14.9-11.1091 30.26-2.2473 0 0 8.94 5.6018 12.69 23.3287 0 0-5.51 1.97-3.75 7.02 0 0-2.54 2.691-4.74 0 0 0 0-7.911-5.44-7.911s-7.53-4.1637-14.52-4.7472c-7-.5835-6.15-.2919-8.01-.5546-1.85-.2627-2.31-2.8274-2.31-2.8274Z" clip-rule="evenodd"/>
  <path fill="#3B5161" fill-rule="evenodd" d="M1111.57 404.349s-2.6 9.159 0 15.441c0 0 1.87 3.789 1.87 9.74 0 0 1.88 8.99 0 14.225 0 0-2.62 1.528-1.87 11.22 0 0-1.52 14.081-3.03 16.279 0 0-2.91 9.643 0 15.915 0 0-2.68 17.586-1.34 22.246 0 0-1.35 8.777 3.55 11.95 0 0 10.01.922 16.42 8.121 0 0 4.56-3.328 6.55-10.762 1.99-7.433 4.47-18.385 6.94-22.906 0 0 5.17-19.844 5.17-28.9 0 0 .07-24.051 1.87-31.518 0 0 3.86-26.569 5.79-28.81v-2.241l-40.05-1.849-1.87 1.849Z" clip-rule="evenodd"/>
  <path fill="#304D63" fill-rule="evenodd" d="M1113.44 443.755c-.92 1.589-1.87-1.062-1.87 11.22 0 0-1.52 14.081-3.03 16.279 0 0-2.91 9.643 0 15.915 0 0-2.68 17.586-1.34 22.246 0 0-1.65 13.505 1.91 17.96 0 0 11.66-5.088 18.06 2.112 0 0 9.77-1.831 9.77-11.899 3.72-4.342 1.25-17.249 3.72-21.77 0 0 5.17-19.844 5.17-28.9 0 0 .28-17.908.77-23.613-5.94-1.169-26.66 1.978-33.16.45Z" clip-rule="evenodd"/>
  <path fill="#274156" fill-rule="evenodd" d="M1113.99 432.714c.45 4.172 0 4.607 0 7.052 0 .99-1.47 2.658-1.47 5.211 0 0 15.6 2.694 21.76 3.154 11.81.881 11.97 1.385 11.97 1.385.15-2.488.53-7.248.92-12.245 0 0-8.15-.402-18.53-1.484-10.38-1.081-14.65-3.073-14.65-3.073Z" clip-rule="evenodd"/>
  <path fill="#EBBFA1" fill-rule="evenodd" d="M1113.31 121.608s2.18 19.643 6.48 25.682c0 0 1.5 3.82-.74 7.691 0 0-4.63 10.693-10.19 14.269 0 0-3.05 4.078-3.05 8.561 0 0-6.52-.583-11.45-8.066 0 0-4.31-8.767-5.6-17.778v-1.535s2.7 1.948 3.92 2.811c0 0 3.77.63 7.55-1.654 0 0 5.4-4.134 9.03-12.514 0 0 2.49-5.793 3.76-14.924l.08-2.646.21.103Z" clip-rule="evenodd"/>
  <path fill="#20354E" fill-rule="evenodd" d="M1115.8 137s1.44.354 1.91.738l3.85 6.39-.58 11.63-7.11 10.721-7.94 10.791s-.65-5.045 4.66-9.819c2.36-2.115 4.75-4.791 6.17-7.802 1.78-3.788 2.31-8.059 2.52-11.885 0 0-1.42-3.446-2.02-5.304-.56-1.73-1.46-5.46-1.46-5.46Z" clip-rule="evenodd"/>
  <path fill="#4993F3" fill-rule="evenodd" d="M1117.71 137s5.67.616 7.26 6.601c0 0 7.09.267 9.83 1.766 0 0 17.44-.552 21.96 1.333 0 0 17.24 16.294 27.72 45.756 0 0 4.01 12.179 5.91 14.071 0 0 2.2 5.108 2.2 8.22 0 0 .49 3.936 1.38 5.105 0 0 1.39 5.336 0 7.002 0 0-1.23 3.719-3.58 5.091 0 0-5.45 3.884-7.57 6.063 0 0-16.01 7.691-25.27 7.691 0 0-6.36-15.003-5.93-16.368.43-1.366 2.57-3.386 3.86-3.386 0 0 2.61-.73 3.56-2.424 0 0 1.82-2.16 3.87-2.16 0 0 1.91.971 3.18 0 0 0-1.53-2.537.72-3.25 0 0-2.3-1.502-.37-2.936 0 0-2.64-2.58-1.87-6.01 0 0-7.07-6.615-9.09-13.352 0 0 2.02 10.156 0 15.002 0 0-1.55 13.302-.26 14.971 0 0-1-.209-1.27.159-.26.368-1.06 1.165-1.06 1.165s-3.55 2.667-5.38 1.758c0 0-5.51-21.974-11.79-31.959l-2.15-1.096s-6.37.145-10.25 1.096c0 0-10.27 1.096-14.13 0 0 0-18.88 1.464-21.99 3.287 0 0-6.72 2.206-4.46 0 0 0 1.08-2.375-2.28-1.188 0 0-2.53 1.188-4.28 1.188l-5.25 1.748s-1.09 1.596.98 4.583c0 0 2.51 6.433 4.93 14.296 0 0 3.62 9.173 3.62 13.29 0 4.116.03 16.683 1.16 18.205 0 0 1.12 20.721 1.12 26.961l.74 7.299s-.17.609-.34.731c-.43.309-.94.165-1.04.139-6.67-1.823-11.09.29-13.28 6.338 0 0-4.65 1.528-4.65-4.633 0 0-.29-6.218-2.3-11.306 0 0-5.06-7.165-5.06-14.505 0 0-2.38-11.568-1.19-18.451 0 0-4.76-20.794-4.76-30.59 0 0-2.55-18.049-1.28-29.953 0 0-.29-3.382 1.28-5.32 0 0-.74-3.53 2.01-4.969 0 0 .31-2.611.85-3.166 3.12-3.175 4.94-3.839 6.09-3.839 0 0 10.42-5.4 14.27-7.746l8.66-3.86s-.9-5.637 2.7-6.947c0 0 1.76 0 1.36 2.866 0 0 .86 15.799 12.13 24.66 0 0 2.12.85 6.59 1.359 0 0 1.06-7.894 3.67-7.894 0 0 5.45-5.027 9.34-12.309 0 0 4.89-12.577-.54-17.582 0 0-.45-.454-.67-1.273-.21-.82.39-1.328.39-1.328Z" clip-rule="evenodd"/>
  <path fill="#579FFD" fill-rule="evenodd" d="M1156.76 146.7s17.24 16.294 27.72 45.756c0 0 4.01 12.179 5.91 14.071 0 0 2.2 5.108 2.2 8.22 0 0 .49 3.936 1.38 5.105 0 0 1.39 5.336 0 7.002 0 0-1.23 3.718-3.58 5.091 0 0-5.45 3.884-7.57 6.062 0 0-16.01 13.727-25.18 13.727 0 0-6.45-21.038-6.02-22.403.43-1.366 2.57-3.387 3.86-3.387 0 0 2.61-.729 3.56-2.423 0 0 1.82-2.16 3.87-2.16 0 0 1.91.971 3.18 0 0 0-1.53-2.537.72-3.25 0 0-2.3-1.502-.37-2.936 0 0-2.64-2.58-1.87-6.01 0 0-7.07-6.615-9.09-13.352 0 0-1.56-.469-2.57-3.357-.71-2.772-1.74-20.857 0-32.937 1-6.948 2.74-13.284 3.85-12.819Zm-86.3 55.687s-.62.995 1.45 3.981c0 0 2.51 6.434 4.93 14.296 0 0 3.62 9.173 3.62 13.29 0 4.117.03 16.683 1.16 18.206 0 0 1.12 20.72 1.12 26.96 0 0 1.21 4.943 1.06 8.469-.15 3.526-1.47 5.215-1.64 5.338-.43.308.09-5.312 0-5.338-6.68-1.823-8.82 6.562-11 12.61 0 0-6.99-4.848-6.99-11.205 0 0-.34-6.159-2.34-11.247 0 0-5.02-7.223-5.02-14.564 0 0-2.38-11.568-1.19-18.451 0 0-4.76-20.794-4.76-30.59 0 0-2.55-18.049-1.28-29.953 0 0-.29-3.382 1.28-5.32 0 0-.74-3.53 2.01-4.969 0 0 3.33 1.386 7.77 4.969 2.54 2.048 3.17 9.905 5.68 12.631 2.66 2.894 1.98 7.511 2.5 9.153.38 1.189 1.64 1.734 1.64 1.734Z" clip-rule="evenodd"/>
  <path fill="#2E63A6" fill-rule="evenodd" d="M1083.36 182.018s8.12-.772 13.7-3.789c0 0 6.01-.876 9.76-.527 0 0-.26-.349-2.86-.574-.9-.078-1.9-.448-3.04-.595 0 0-2.19 1.085-3.41.335-1.22-.751-1.74-1.168-1.74-1.168l-4.71.909-7.7 4.536v.873Z" clip-rule="evenodd"/>
  <path fill="#4B4B4B" fill-rule="evenodd" d="M1048.76 544.521s1.73-13.837-2.32-13.837c-1 0-8.43 1.044-10.98.53-5.2-1.048-8.49-4.182-9.84-4.517-1.29-.32-10.85 10.336-12.06 11.08-1.22.743-6.36 7.342-8.55 8.34 0 0-7.421 3.908-8.611 5.215 0 0-3.716 5.084-.989 7.23 0 0 2.293 3.242 15.03 2.164 0 0 12.18-2.16 12.18-5.372 0 0 10.98-6.625 14.75-6.625l11.39-4.208Z" clip-rule="evenodd"/>
  <path fill="#3571BD" fill-rule="evenodd" d="m1149.48 230.268 2.12-.457s.4-1.342.87-1.899c1.23-1.469 2.87-1.966 2.87-1.966l-1.27-.653s-5.9-3.428-8.61-8.193l4.02 13.168Zm-66.25-48.294s-1.67-5.636-1.67-7.814c0-12.827 1.19-18.805 1.19-18.805s-.89-5.561 2.71-6.871c0 0 2.22.216 1.83 3.082 0 0 .66 14.946 12.04 24.584.06.05.88.329 1.87.642 0 0-1.5.793-2.47.673-.98-.121-2-.971-2.25-1.152-.26-.18-.42-.051-.54 0-7.75 3.387-11.31 6.058-12.71 5.661Z" clip-rule="evenodd"/>
  <path fill="#2E63A6" fill-rule="evenodd" d="M1117.67 168.845s-8.55-1.218-10.25 1.833c0 0 1.7-1.129 2.42-1.301 1.22-.291 3.14 0 3.14 0s11.18 4.923 13.68 2.269c0 0-5.58-1.24-8.99-2.801Z" clip-rule="evenodd"/>
  <path fill="#3571BD" fill-rule="evenodd" d="M1117.7 136.981s5.95.626 7.54 6.611c0 0 1.67 3.624.98 6.036-.21.736.76 10.314 0 15.71-.33 2.317.44 6.313.44 6.313s-6.27-1.206-8.68-1.504c-5.8-.719-8.45-1.147-8.26-1.147 0 0 4.91-4.603 8.8-11.885 0 0 4.89-12.528-.54-17.533 0 0-.45-.454-.66-1.274-.21-.819.38-1.327.38-1.327Z" clip-rule="evenodd"/>
  <path fill="#3B5161" fill-rule="evenodd" d="M1092.95 403.539s.09 8.259-2.75 14.054c0 0-5.85 15.985-5.85 20.104 0 0-10.95 21.051-10.95 31.25 0 0-6.25 12.914-6.25 17.348 0 0-8.7 25.686-8.7 29.896 0 0-2.69 12.218-10.17 16.007 0 0-4.23-2.44-9.75-1.282s-8.06-2.757-10.13-3.553c-1.52-.581-3.07.522-4.08-.347 0 0-1.7-9.399 1.63-14.834 0 0 .51-1.952.51-9.191 0 0 1.75-7.628 4.32-10.571 0 0 1.53-6.901 4.24-9.719 0 0 1.8-4.265 0-7.856 0 0 .04-9.36 3.51-12.606 0 0 1.25-6.717 3.38-7.896 0 0-1-9.197 1.1-12.37 0 0 4.3-29.791 10.45-41.056l1.58-2.917 37.91 2.917v2.622Z" clip-rule="evenodd"/>
  <path fill="#304D63" fill-rule="evenodd" d="M1082.27 441.973s-8.87 16.775-8.87 26.974c0 0-6.25 12.914-6.25 17.348 0 0-8.7 25.686-8.7 29.896 0 0-2.28 13.567-8.49 16.661 0 0-5.91-3.094-11.43-1.936s-8.06-2.757-10.13-3.553c-1.52-.581-3.07.522-4.08-.347 0 0-1.7-9.399 1.63-14.834 0 0 .51-1.952.51-9.191 0 0 1.75-7.628 4.32-10.571 0 0 1.53-6.901 4.24-9.719 0 0 1.8-4.265 0-7.856 0 0 .04-9.36 3.51-12.606 0 0 1.25-6.717 3.38-7.896 0 0 1.17-13.797 3.27-16.971 0 0 30.43 4.601 37.09 4.601Z" clip-rule="evenodd"/>
  <path fill="#274156" fill-rule="evenodd" d="M1045.23 427.7c-.41 1.676-.84 3.193-1.28 4.553-.55 1.701-1.23 3.727-1.99 5.962 0 0 18.45 1.999 27.8 3.255 9.78 1.315 11.76 2.181 11.76 2.181.77-2.265 2.87-2.863 2.87-5.782 0-.984.4-2.839.64-4.68 0 0-10.88-2.637-17.88-3.666-6.78-.996-21.92-1.823-21.92-1.823Z" clip-rule="evenodd"/>
  <path fill="#4A6980" fill-rule="evenodd" d="M1083.03 155.265s-.67 8.349-2.37 11.89v9.611c0 3.22-4.21 14.466-4.21 19.444 0 0-1.36 2.902-.36 3.985 0 0 9.79-4.603 6.58.82 0 0 8.11-2.459 14.86-3.144 6.76-.686 14.72-1.661 22.68-1.045 0 0 5.73.009 6.93-1.502 0 0 .93-1.715.93-6.8 0 0-.95-22.348-1.25-26.781-.3-4.434.01-5.022 0-6.887 0-2.123.18-3.768-.59-4.973l-.98-6.289s1.89 0 2.64-.107c.74-.108 2.3.558 2.3.558s1.04 4.34 1.29 9.358c.25 5.018 1.01 12.866 1.01 17.119 0 4.254 1.37 20.205 0 25.197 0 0 2.85-.395 4.38 1.564 0 0 5.7 11.095 8.14 17.995 3.44 9.718 5.92 21.552 9.91 33.569 0 0 2.89 4.871 2.89 10.095 0 0 1.19 4.644 2.84 6.512 0 0 1.73 3.867 1.73 8.784 0 0 4.58 7.317 4.58 15.365 0 0 1.84 20.358 8.51 39.902 0 0 4.75 11.432 2.37 25.031 0 0-4.29 38.214-4.29 45.744 0 0-.01 5.852-4.75 5.852 0 0-11.66.48-17.5-1.381 0 0-16 1.689-27.13-1.391 0 0-20.06-1.392-42.13 0 0 0-20.05-1.08-27.48-3.08 0 0 4.11-46.505 7.43-58.64 0 0 .6-12.928 3.36-17.164 0 0 3.35-.265 1.67-6.941 0 0-2.23-3.469 0-7.282 0 0 .35-8.639 3.69-10.397 0 0 11.82-6.207 13.71-10.253 0 0-2.38-10.65-2.38-13.008 0 0 3.88-7.801 0-14.233l-1.58-18.373-.27-10.015s-6.27-24.296-9.78-30.031c0 0 0-2.936 1.84-11.078 0 0 3.48-13.022 3.84-18.048.36-5.025.34-13.496 4.1-18.235l2.84-1.317Z" clip-rule="evenodd"/>
  <path fill="#385469" fill-rule="evenodd" d="M1132.41 287.395c-7.35 6.103-20.67 16.839-28.73 15.596 0 0 .18-7.12 4.52-13.804 0 0 2.66-2.661 3.8-3.622 0 0-4.52 5.25-4.43 8.005.1 2.755 21.3-4.713 32.18-16.665 0 0 0 4.388-7.34 10.49Z" clip-rule="evenodd"/>
  <path fill="#E8E8E8" fill-rule="evenodd" d="M1117.11 277.015 992.932 563.503l-5.508-2.434L1118.5 254.431l-1.39 22.584Z" clip-rule="evenodd"/>
  <path fill="#ADACAC" fill-rule="evenodd" d="M1117 277.288 992.912 563.466l-2.418-1.705 125.946-291.289.56 6.816Z" clip-rule="evenodd" opacity=".79503"/>
  <path fill="#061D2C" fill-rule="evenodd" d="M1112.32 268.864s-.25-1.353 1.55-5.624l4.25-10.702h.29l8.13 2.738s-4.73 13.937-5.76 15.727c-1.02 1.79-6.27-.611-8.46-2.139Z" clip-rule="evenodd"/>
  <path fill="#FFCEAD" fill-rule="evenodd" d="m1152.06 229.7-6.66 1.452s-9.55 2.468-12.6 5.955c0 0-6.87 5.824-9.15 6.766 0 0-5.23 2.337-7.13 3.281-1.9.944-2.13 2.77-2.97 4.088 0 0-1.94 3.541-2.91 4.953-.96 1.412.08 6.654-1.18 7.433 0 0 3.85 1.234 5.15-6.038 0 0 2.24-4.701 3.43-4.701 0 0-.12 5.905-1.13 8.204 0 0-1.13 8.275 0 16.338 0 0 1.89.882 2.78-.906 0 0 1.16-5.824 1.16-10.51 0 0 2.8-7.524 2.8-10.325 0 0 1.69 4.295 0 10.325 0 0-.47 2.67 2.52 2.67 0 0 1.55-.759 3.07-9.134l-1.2 6.051s3.34 1.718 4.76-2.354c0 0 2.2 2.945 5.86-1.918 0 0 .64-1.779 1.39-1.779 0 0 1.51-.33 1.14-3.085 0 0 2.01-.968 2.01-7.009 0 0 1.06-2.904 4.97-2.067 0 0 5.22 0 9.69-1.306 0 0 0-6.154-1.85-11.194-1.75-4.773-3.95-5.19-3.95-5.19Z" clip-rule="evenodd"/>
  <path fill="#F5BE98" fill-rule="evenodd" d="M1139.26 236.913s-7.74 4.954-10.02 5.896c-2.28.941-9.3 5.704-11.2 6.648-1.9.943-1.98 1.533-2.82 2.851 0 0-1.74 2.746-2.71 4.158-.97 1.412-.59 6.505-1.86 7.284 0 0 2.66 1.113 3.96-6.159 0 0 2.24-4.702 3.43-4.702 0 0-.12 5.905-1.13 8.204 0 0-1.13 8.275 0 16.338 0 0 1.89.882 2.78-.906 0 0 1.16-5.824 1.16-10.51 0 0 2.8-7.524 2.8-10.325 0 0 1.69 4.296 0 10.325 0 0-.47 2.67 2.52 2.67 0 0 1.55-.759 3.07-9.134l-1.2 6.051s3.34 1.718 4.76-2.353c0 0 2.2 2.945 5.86-1.919 0 0 .64-1.779 1.39-1.779 0 0 1.51-.33 1.14-3.085 0 0 2.01-.968 2.01-7.009 0 0 1.06-2.904 4.97-2.067 0 0 5.22 0 9.69-1.306 0 0 0-8.828-3.32-14.455-5.35 2.755-12.23 1.797-15.28 5.284Z" clip-rule="evenodd"/>
  <path fill="#B48463" fill-rule="evenodd" d="M1128.12 265.639s.86-1.674.86-3.011c0-1.007 1.05-3.222 1.16-4.055.03-.272-.55.199-.82.601-.27.403-.53 2.067-.79 3.454l-.65 2.888.24.123Z" clip-rule="evenodd"/>
  <path fill="#061D2C" fill-rule="evenodd" d="m1054.53 404.077 6.15 3.106s1.13-1.029 1.72-2.397c.6-1.367.57-2.865.57-2.865l-6.25-2.964s-1.21 1.061-1.68 2.192c-.46 1.131-.51 2.928-.51 2.928Z" clip-rule="evenodd"/>
  <path fill="#FFCEAD" fill-rule="evenodd" d="M1068.96 293.791s3.47 8.655 3.47 11.214c0 0 1.1 7.177 2.11 8.739 0 0 1.26 5.343 1.26 7.652 0 0-1.37 12.822 0 14.475 0 0-.38 5.998-1.26 7.294 0 0 .39 6.591 2.68 7.987 0 0 2.29-5.179 3.36-7.672 0 0 2.08-3.482 1.4-5.388 0 0 2.29-2.567 3.33-5.285 0 0-.03 7.39 2.09 8.874 0 0 3.59 1.095 4.39-2.675 0 0 .02-2.72-.81-6.199 0 0-.38-7.984.81-11.411 0 0 1.69-5.502-3.54-10.946 0 0-7.17-9.791-6.02-17.372v-5.457s-4.23-2.183-8.44-.3c-4.2 1.882-4.83 6.47-4.83 6.47Z" clip-rule="evenodd"/>
  <path fill="#F5BE98" fill-rule="evenodd" d="M1070.02 291.177s5.74 9.413 5.74 11.972c0 0 3.88 14.727 3.88 17.037 0 0-2.75 13.927-1.38 15.58 0 0-.17 6.418-1.04 7.714 0 0-1.25 4.977 1.04 6.373 0 0 1.25-3.88 2.32-6.373 0 0 2.08-3.482 1.4-5.388 0 0 2.29-2.567 3.33-5.285 0 0-.03 7.39 2.09 8.874 0 0 3.59 1.095 4.39-2.675 0 0 .02-2.72-.81-6.199 0 0-.38-7.984.81-11.411 0 0 1.69-5.502-3.54-10.946 0 0-7.17-9.791-6.02-17.372v-5.457s-4.23-2.183-8.44-.3c-4.2 1.882-3.77 3.856-3.77 3.856Z" clip-rule="evenodd"/>
  <path fill="#385469" fill-rule="evenodd" d="M1096.86 324.215s21.33.59 43.08-11.282l3.32-1.897s1.51-.718 1.51 1.069c0 0-17.02 13.98-36.42 20.15 0 0-8.66 3.118-13.35 2.179l1.86-10.219Z" clip-rule="evenodd"/>
  <path fill="#F5BE98" fill-rule="evenodd" d="m1082.46 356.955 2.12-4.887s2.62 2.664.27 4.887c-.42.245-.94.245-1.33.245-.47 0-1.06-.245-1.06-.245Zm3.89-9.027 2.61-5.996s3.51-.511 2.61-6.002c0 0 .86-2.485 1.29-3.366.47-.951 1.01-1.55 1.07-2.207.2-1.899 1.42-3.145 1.95-4.323 0 0 1.47-5.751 4.41-2.401 0 0-1.6 4.901-2.57 6.864 0 0-1.84 5.667-1.84 9.068 0 0-.36 4.851-5.13 7.271l-4.4 1.092Z" clip-rule="evenodd"/>
  <path fill="#D8D8D8" fill-rule="evenodd" d="M1110 548.368s.22 7.224 6.68 9.16c0 0 14.6 2.424 19.74-4.235 0 0 .62-3.394-.54-5.42l-25.88.495Z" clip-rule="evenodd"/>
  <path fill="#4B4B4B" fill-rule="evenodd" d="M1108.8 535.246s-1.41 15.323 5.3 16.764c0 0 15.66 3.508 21.79-4.125 0 0-.81-2.553-2.32-7.596-1.51-5.043-6.12-11.145-6.12-11.145s-6.61-6.8-17.15-1.261l-1.5 7.363Z" clip-rule="evenodd"/>
  <path fill="#D8D8D8" fill-rule="evenodd" d="M1048.85 543.877s1.21 5.716 0 8.063c0 0-10.01 4.325-13.16 4.325 0 0-3.4-2.278-5.79 0 0 0-2.97 3.573-4.32 3.573 0 0-15.09 6.125-23.84 5.082 0 0-7.51-1.298-7.51-3.017 0 0-.024-3.755 1.283-3.755 0 0 .469 2.805 10.147 2.805 0 0 9.57-.58 16.18-5.604 6.62-5.024 14.67-7.559 19.53-8.645 4.86-1.087 7.48-2.827 7.48-2.827Zm-65.126 50.636s15.616 4.034 21.556 4.034c0 0 17.5.864 20.82 1.994 0 0 10.87 2.248 14.92 2.248 0 0 2.95 1.458 5 1.458 0 0 5.84 1.758 3.44 6.933 0 0-4.39 4.376-8.44 7.287 0 0-7.13 1.944-7.13 3.478 0 0-2.31 3.115-5.44 1.1 0 0-1.06-1.863-2.35-3.22-1.3-1.358-4.02 0-6.59 0 0 0-4.4-.991-6.47-2.454-2.07-1.464-14.898-1.616-17.282-1.54-2.383.076-11.214-.505-13.757-2.123-2.543-1.618-16.738-2.528-18.743-2.528-2.005 0-12.877-3.162-17.048-3.162-4.171 0-11.796-3.771-16.579-3.771-4.782 0-11.699-2.917-15.094-1.458-3.395 1.458-10.518-.368-11.376-1.308-.858-.94-3.765-3.036-1.882-5.002 1.882-1.966 4.267-2.107 6.104-2.924 1.837-.817 10.331-3.955 11.894-6.423 1.563-2.468 3.336-4.632 6.845-4.632s5.93 3.004 9.288 3.004c3.358 0 12.223 3.084 13.642 3.084 1.419 0 9.838 2.118 10.951 2.118 1.113 0 7.658 1.605 5.456 1.605l7.481 6.236 10.784-4.034Z" clip-rule="evenodd"/>
  <path fill="#061D2C" fill-rule="evenodd" d="M987.073 560.747s.406-.534.724-.534c3.265.959 4.716 2.001 5.373 2.659.163.163.259.426.12 1.008 0 0-4.815 9.282-2.55 10.384 0 0-7.702 11.336-8.853 16.245 0 0 1.365 3.429-.676 4.627 0 0-6.91.483-8.158-1.106 0 0-1.471-3.237 2.509-6.319 0 0 4.973-11.311 5.649-16.957 0 0 1.905-1.119 2.457-1.98 1.552-2.423 3.405-8.027 3.405-8.027Z" clip-rule="evenodd"/>
  <path fill="#061D2C" fill-rule="evenodd" d="M910.557 596.866s12.06.415 19.347 2.538c0 0 21.893 3.933 26.903 4.808 0 0 24.594 6.168 27.438 5.201 0 0 18.725 1.657 24.375 2.99 0 0 18.26 3.766 19.49 3.766 0 0 4.71.945 6.75-1.41 0 0 6.98-6.097 8.12-7.101 0 0-.72-.61-3.5-2.028 0 0-16.71-2.922-19.03-3.935 0 0-13.21-1.896-25.922-3.363 0 0-8.946-4.145-13.11-4.145 0 0-5.661 2.501-8.544-1.244 0 0-15.739-2.287-24.317-2.287 0 0-14.38-1.363-16.517-3.053 0 0-3.788-1.206-6.876 0l-14.607 9.263Z" clip-rule="evenodd"/>
  <path fill="#3571BD" fill-rule="evenodd" d="M1107.66 178.4s6.86.763 3.72 14.656c0 0-.53 1.407-.85 1.407-.32 0 .46-8.322-.85-11.769-1.31-3.446-2.02-4.294-2.02-4.294Zm-18.49 20.879s.3-3.172 8.21-10.594c0 0 .16-.508-.53-.346 0 0-5.72 3.711-8.29 6.422-2.56 2.711-3.37 4.374-5.19 6.046 0 0 1.85-.533 2.76-.774.98-.261 3.04-.754 3.04-.754Zm28.4-2.601s-.26-1.401.88-2.58c1.13-1.179 1.92-3.098 1.92-3.098s-1.9 1.759-3.02 2.707c-1.02.855-2.37 1.82-3.4 2.928l3.62.043Z" clip-rule="evenodd"/>
  <path fill="#B48463" fill-rule="evenodd" d="M1133.03 263.531s.32-1.508.32-2.986c0-1.364 1.07-2.247.99-2.625-.05-.192-.67.351-.76.606-.08.255-.38.817-.46 2.234-.09 1.416-.31 2.495-.31 2.495l.22.276Z" clip-rule="evenodd"/>
  <path fill="#2E63A6" fill-rule="evenodd" d="M1157.86 246.086s.46 6.026-.22 5.644c0 0-.33-.519-.44-.881-.42-1.349-1.15-4.3-1.15-4.3s.51-.122.94-.233c.43-.111.87-.23.87-.23Zm-88.89 47.597s-.45 1.392-.55 2.187c-.1.796-.1 1.695 0 2.119 0 0 .71.656 1.08.958.39.324 1.2.921 1.2.921l.45-.241-.85-2.377-1.33-3.567Zm13.27-6.056v4.756s.6-.457.8-.889c.5-1.058.7-2.209.63-2.564-.14-.719-1.43-1.303-1.43-1.303Z" clip-rule="evenodd"/>
  <path fill="#347BD6" fill-rule="evenodd" d="M1164.87 221.846s.26.901 4.34.06c0 0 3.47.043 3.68.5 0 0 1.91.916 3.42.916 0 0-2.23-1.827-4.18-2.348 0 0-2.15.413-3.19 0 0 0-2.29.121-2.85.39 0 0-.36.241-.56.32-.21.082-.66.162-.66.162Zm1.34-3.486s.99.665 3.64-.127c0 0 1.23-.014 2.68.847 0 0 .39.124-.14-.516 0 0-1.62-1.95-4.8-.752l-1.02.139.24.16s-.11.027-.28.098c-.18.072-.32.151-.32.151Z" clip-rule="evenodd"/>
  <path fill="#385469" fill-rule="evenodd" d="M1082.12 262.564s10.61-1.958 17.78 2.974c0 0 2.57 2.516 0 4.567 0 0-9.26 1.318-11.29 4.009 0 0-2.21 3.187-6.49 2.69 0 0 2-5.182 2-7.907 0-2.421-2-6.333-2-6.333Zm-15.06 54.985s6.32 1.078 8.45 7.602c0 0 .7 3.109-4.99 1.339 0 0-2.62-2.614-5.16-1.973 0 0 1.78-1.101 2.1-2.328.27-1.051-.4-4.64-.4-4.64Z" clip-rule="evenodd"/>
  <path fill="#DFA984" fill-rule="evenodd" d="M1113.83 104.421s.22-.43 1.58-.43c1.35 0 2.42 4.758 2.42 6.97 0 0 1.11-4.325-1.49-7.762 0 0-.53-.487-1.1-.328-1.17.328-1.41 1.55-1.41 1.55Z" clip-rule="evenodd"/>
  <path fill="#DFA984" fill-rule="evenodd" d="M1113.06 108.379s-.08-2.638 2.05-1.759c0 0 1.98 2.315.64 4.456 0 0-1.78.813-1.78 3.163 0 0-.48 1.04-.91 0 0 0 .2-2.538.91-3.66 0 0 .5-1.209 0-2.2h-.91Z" clip-rule="evenodd"/>
  <path fill="#3D6F90" fill-rule="evenodd" d="M972.994 590.771s-1.121-.654-2.277 0c-1.156.653-1.049 2.182-.613 3.696.437 1.514 6.393 5.698 12.46 2.415 0 0 2.026-.78 2.026-2.782s-2.194-1.838-2.194-1.838 0 2.263-.882 2.617c0 0-5.875 2.293-8.615-1.443 0 0-.197-.684-.197-1.174 0-.398.292-1.491.292-1.491Z" clip-rule="evenodd"/>
  <path fill="#F19B02" fill-rule="evenodd" d="M1221.54 603.579h8.14s5.35.046 5.35-4.328v-8.106l-17.76 6.217 4.27 6.217Zm65.09-.131h10.15s4.27-1.061 3.36-4.935l-15.21-145.204s-5.53-3.218-6.46-7.486l2.55 14.58 2.71 142.007 2.9 1.038Z" clip-rule="evenodd"/>
  <path fill="#ECBA0B" fill-rule="evenodd" d="M1215.36 430.544v-2.591s.84-1.854 3.48-1.854c0 0 27.78-2.511 56.54 1.115 0 0 3.12.744 3.12 2.037v4.414h-12.77l-1.18 3.325-34.8-.694-12.35-1.563-2.04-4.189Z" clip-rule="evenodd"/>
  <path fill="#FEC803" fill-rule="evenodd" d="m1209.11 455.768-14.98 161.666s1.12 4.518 4.3 4.518H1214s5.7.006 5.7-2.821l1.13-14.731s.87-4.523 4.54-4.523c0 0 14.7-1.931 32.79 1.345 0 0 2.74 1.952 2.74 4.884v13.025s.48 3.414 4.46 4.451h16s6.21-.106 5.2-6.148l-3.2-161.666s-5.78-6.068-4.58-14.68h-13.42v2.241h1.78v12.439h-4.28s-2.54.271-3.62-2.109c0 0-2.23-2.82-4.15-2.82h-16.58s-4.54.86-6.68 4.929h-5.1v-12.439h2.47v-2.241h-12.63s-.55 5.776-2.57 9.751c-2.03 3.974-4.89 4.929-4.89 4.929Z" clip-rule="evenodd"/>
  <path fill="#FADD01" fill-rule="evenodd" d="m1217.66 458.342 53.2 1.328s7.42-.407 7.42 7.308l2.44 126.472s-2.21 5.457-6.65 3.56c0 0-31.93-10.678-66.6-1.547 0 0-6.02.348-6.02-3.735l11.91-128.337s.19-2.527 1.21-3.721 3.09-1.328 3.09-1.328Z" clip-rule="evenodd"/>
  <path fill="#EDAF00" fill-rule="evenodd" d="M1216.12 432.319s-2.81 4.948-.53 9.419h13.8s1.71-4.116.64-9.419h-13.91Zm48.34 9.219s-1.4-4.445 0-8.879h14.66s1.83 3.217 0 8.879h-14.66Z" clip-rule="evenodd"/>
  <path fill="#3E3E3E" fill-rule="evenodd" d="m1231.66 528.63.58 9.164 6.35 4.062s2.06-.111 1.41-2.087l-5.31-3.173v-3.768l9.71 4.966 2.21 1.399 4.74 7.395s2.25 1.249 2.96-1.289l-4.13-7.064-4.39-3.295s-.06-1.361.82-2.112l3.57-2.054 3.37 4.166s3.11.647 3.11-1.76l-4.9-5.874s-1.5-.856-2.67 0l-4.69 3.468s-.93.43-2.05 0l-4.46-2.954s-.71-1.436 0-2.465l2.11-3.897-2.11-6.157s-2.09-.934-2.64 1.032l1.84 4.61-2.4 4.412s-.32 1.379-1.69 1.379l-1.34 1.896Z" clip-rule="evenodd"/>
  <circle cx="1230.66" cy="527" r="3" fill="#3E3E3E"/>
  <path stroke="#3E3E3E" stroke-width="4" d="M1238.12 501.645c1.15-1.91 3.91-1.936 5.1-.049l29.33 46.49c1.27 2.015-.2 4.636-2.58 4.6l-56.9-.864c-2.32-.036-3.72-2.57-2.52-4.552l27.57-45.625Z" clip-rule="evenodd"/>
  <path stroke="#3E3E3E" stroke-linecap="round" stroke-width="3" d="m1227.22 547.552 26.85.459"/>
  <ellipse cx="820.216" cy="533.348" fill="#D5D5D5" rx="8.80913" ry="8.81781"/>
  <ellipse cx="821.017" cy="534.15" fill="#22191A" rx="5.60581" ry="5.61134"/>
  <ellipse cx="939.94" cy="526.534" fill="#D5D5D5" rx="7.60788" ry="7.61538"/>
  <ellipse cx="837.034" cy="549.381" fill="#D5D5D5" rx="9.60996" ry="9.61943"/>
  <ellipse cx="964.766" cy="540.162" fill="#D5D5D5" rx="9.20954" ry="9.21862"/>
  <ellipse cx="964.766" cy="540.162" fill="#22191A" rx="5.20539" ry="5.21053"/>
  <path fill="#94ADCB" fill-rule="evenodd" d="m817.693 452.883 9.607-23.756s4.742-12.235 18.647-8.496c0 0 5.094 1.795 18.992 11.574l-17.102-.385-11.339 19.714-9.456 3.1-9.349-1.751Z" clip-rule="evenodd"/>
  <path fill="#7797BD" fill-rule="evenodd" d="m819.864 454.105 9.607-23.756s3.897-9.897 14.77-7.598c0 0 5.206 1.193 19.104 10.971l-15.509-1.902-11.339 19.714-9.456 3.099-7.177-.528Z" clip-rule="evenodd"/>
  <path stroke="#DFDFDF" stroke-width="4" d="M905.846 432.743c-2.209 2.79-6.625 8.37-6.625 8.37"/>
  <path fill="#016BD9" fill-rule="evenodd" d="m808.198 453.564 1.536 18.849 10.438 33.367v9.828l5.804 5.05 44.463 1.484 20.265-3.304.251-72.006-11.982-6.37s-3.249-.42-4.294-.42c-7.68-6.798-19.067-14.739-20.912-14.739 0 0-9.075-.786-13.564 6.561l-9.05 20.595-8.171.516s-1.492.041-2.581-.143c-1.09-.184-2.136-.613-2.136-.613l3.27-8.828h-11.801s-2.268-.231-2.268 1.275l-1.383 4.218v2.661l2.115 2.019Z" clip-rule="evenodd"/>
  <path fill="#0058B4" fill-rule="evenodd" d="M874.678 440.042c-7.68-6.798-19.067-14.739-20.911-14.739 0 0-9.075-.786-13.564 6.561l-9.051 20.595h2.358l9.316-20.595s5.967-6.837 14.511-2.363c8.543 4.474 18.36 11.442 17.341 10.541Z" clip-rule="evenodd"/>
  <ellipse cx="939.94" cy="527.336" fill="#4D4D4D" rx="4.40456" ry="4.40891"/>
  <path fill="#BE0604" fill-rule="evenodd" d="m880.223 441.194 13.75 7.21 60.166-1.071h5.015s-9.054-7.097-21.723-7.738l-58.68.845 1.472.754Z" clip-rule="evenodd"/>
  <path fill="#EC0620" fill-rule="evenodd" d="M959.908 450.841v18.664l-8.072 27.621s-.649 2.823-.649 4.324v14.177l-60.212 1.142v-68.414l67.106-1.1s1.827 0 2.288 1.1c.46 1.1-.461 2.486-.461 2.486Z" clip-rule="evenodd"/>
  <path fill="#D60300" fill-rule="evenodd" d="m959.908 450.841-68.933 1.793v-4.279l67.106-1.1s1.827 0 2.288 1.1c.46 1.1-.461 2.486-.461 2.486Z" clip-rule="evenodd"/>
  <path fill="#CDD2DC" fill-rule="evenodd" d="M820.216 509.99v5.627s3.201 2.527 6.266 3.651c0 0 .17-4.936 2.141-3.97l1.661 1.153s.784.47 1.818.47h6.356s1.026.042 1.523.686l2.315 2.999 29.038-1.338v-6.099s.105-1.559.656-2.787l19.727-73.23s.386-1.643-1.781-2.679c0 0-9.362-4.932-15.356-6.374v4.308l4.198 8.037-3.724.099s-1.57-1.627-6.638-5.704v-9.892s1.008-3.567 5.459-2.917l24.703 10.377s1.376 1.059 1.376 5.26l21.257 72.715v5.235l23.619-1.545s.621-3.82 2.589-4.504c1.968-.683 3.775-.818 3.775-.818v-2.893s4.862-.238 6.177 3.711c0 0 .433 2.561 3.583 2.561 0 0 .978.399.978 1.943l.803 9.156-41.524 5.243-47.336 3.299-45.252 1.609s-3.928.21-5.624-.883l-12.482-8.519-.898-7.526s-.898-6.133 0-8.364c0 0 1.12-.884 2.022-1.4.902-.517 1.878-.83 1.878-.83l6.697 4.133Zm56.023 1.653s23.686-.437 39.701-2.694l-3.161-11.824s-5.526-5.078-16.689-4.471c0 0-10.086 0-16.213 6.9l-3.638 12.089Zm33.845-25.036-27.888 1.21 4.64-16.663c11.234-6.384 19.455.688 19.455.688l3.793 14.765Z" clip-rule="evenodd"/>
  <path fill="#B7C1D5" fill-rule="evenodd" d="M944.83 514.072s.621-3.82 2.589-4.503c1.968-.684 3.775-.819 3.775-.819v-2.893s4.862-.238 6.176 3.712c0 0 .634 1.544 1.093 1.939-5.967 1.662-13.633 2.564-13.633 2.564Zm-118.349 5.196s.171-4.936 2.142-3.97l1.661 1.153s.784.47 1.817.47h6.356s1.027.042 1.523.686l2.316 2.999h-11.703c-1.535 0-2.85-.688-4.112-1.338Z" clip-rule="evenodd"/>
  <path fill="#0058B4" fill-rule="evenodd" d="M806.08 448.934s-.998 1.211 0 2.616l13.097 4.431s1.871.718 6.12.718l25.451-1.269s-.334 3.266 2.429 3.266l4.547-.339s2.954.043 2.954-3.606l26.715-1.568s.483-1.689 1.117-4.12l-63.862 3.775s-3.716.429-5.471-.368l-13.097-3.536Z" clip-rule="evenodd"/>
  <path fill="#CDD2DC" fill-rule="evenodd" d="m931.494 450.476 22.032 34.19 6.992 13.561s.111 2.692-2.024 2.692l-7.329-1.515 2.361-8.114-1.267-2.93s-.57-1.721-1.094-2.707l-22.162-32.266 2.491-2.911Z" clip-rule="evenodd"/>
  <path fill="#BEC3CD" fill-rule="evenodd" d="M858.261 456.274c.112-.178.066-.413-.105-.537l-1.955-1.411c-.187-.136-.451-.084-.573.113l-21.95 35.27s-.834 1.557-1.737 2.527l-11.483 11.823s-1.66.083-1.66-1.232c0 0-1.61-5.042-5.582-5.686l2.428-6.045-1.643-5.108s-4.06 8.925-4.917 10.294c0 0-.598 1.638 0 4.092 0 0 2.641 6.054 10.415 9.283 0 0 1.524 1.009 3.116-1.207l9.818-12.168s2.959-3.133 3.966-5.186l21.862-34.822Z" clip-rule="evenodd"/>
  <path fill="#BCBCBC" fill-rule="evenodd" d="m872.271 438.015 26.227-37.77s-1.64-3.062-4.175-3.062l-25.724 37.812 3.672 3.02Z" clip-rule="evenodd"/>
  <path fill="#90929C" fill-rule="evenodd" d="M894.254 397.293s.535-3.173 3.769-6.079c0 0 1.406-3.992 4.197-5.594 0 0 1.208-3.621 4.068-6.114 0 0 1.803-4.847 5.018-6.98 0 0 2.736.019 4.906 3.268 0 0-1.204 3.953-4.559 7.126 0 0-1.921 4.457-4.336 6.109 0 0-.896 3.427-3.952 5.846 0 0-2.098 4.76-4.856 5.437l-4.255-3.019Z" clip-rule="evenodd"/>
  <path fill="#AAB0BC" fill-rule="evenodd" d="M956.033 524.275v2.29s-4.923.194-2.461 4.193c0 0 5.058 1.776 5.813 3.692 0 0 3.902 6.75 4.909 7.942 0 0 2.452 1.407 3.241-1.422l-.755-9.274s-.069-3.454-3.353-3.454c0 0-1.257-1.677-3.284-1.677v-2.927l-4.11.637Z" clip-rule="evenodd"/>
  <path stroke="#DFDFDF" stroke-width="4" d="m896.958 495.875 94.395-122.845s8.279-11.527 0-11.527h-26.82s-4.769 1.694-9.038 8.675l-54.009 68.231"/>
  <ellipse cx="837.434" cy="549.781" fill="#22191A" rx="6.00622" ry="6.01215"/>
  <path fill="#AAB0BC" fill-rule="evenodd" d="M826.625 533.932v2.42s-2.134.07-2.677.6c0 0-.437 1.871 0 2.699 0 0 1.447 1.923 4.436 1.923 0 0 3.968 4.01 7.707 10.133 0 0 2.181 1.858 3.464-1.082L838 539.651h-4.453s-.01-2.699-2.586-2.699v-3.02h-4.336Z" clip-rule="evenodd"/>
  <path fill="#BEC3CD" fill-rule="evenodd" d="M810.491 509.038v5.368l13.213 7.15s3.725 2.793 9.443 1.396l41.393-2.142 47.056-3.249 36.728-3.155s3.456 0 3.456-1.574l.906 10.366-41.09 5.226-47.056 3.529-44.705 1.917s-3.765.273-6.131-.822l-14.7-9.634s1.503-2.068 0-7.186v-7.19s.389-1.342 1.487-1.342v1.342Z" clip-rule="evenodd"/>
  <path fill="#004FA1" fill-rule="evenodd" d="m818.727 450.899 2.201-5.935h-9.874s-1.219-.047-1.465.989l-.595 2.459 9.733 2.487Zm56.326-10.355s6.701 6.478 3.658 7.991l9.081-.55s1.288-.054 0-.963l-10.827-6.555-1.912.077Z" clip-rule="evenodd"/>
  <path fill="#AAB0BC" fill-rule="evenodd" d="m931.878 453.862 20.636 31.159 5.9 15.893-7.27-1.514.853-2.764 2.263.414-.298-5.777-2.112-5.939-20.416-30.952.444-.52Zm-38.818-8.498-5.643 21.718s8.915-5.854 17.83 0l-6.259-21.718h-5.928Zm-36.608 11.064-21.581 35.167-13.435 15.408s-.699.956-2.038.679c0 0-6.347-3.112-9.085-8.863 0 0-.387-1.462.688-3.188l3.647-7.411.475 1.148-3.806 8.878s5.46.966 6.753 6.633c0 0 2.083 1.855 3.705 0l12.64-13.527 21.771-35.131.266.207Z" clip-rule="evenodd"/>
  <path fill="#D0D0D0" fill-rule="evenodd" d="m898.554 497.088 93.894-122.197s6.395-8.558 4.618-12.6c0 0-2.022 7.043-5.864 11.06l-94.145 122.576 1.497 1.161Zm4.101-56.983 53.085-66.969s1.717-2.226 2.263-3.078c0 0 3.44-5.269 6.968-6.577h26.197s2.333.094 2.333.763c0 0-.048-1.804-1.968-2.178h-26.562s-4.408 1.398-8.308 7.369l-2.251 2.806-53.884 67.398.164.466h1.963Z" clip-rule="evenodd"/>
</svg>
