<svg xmlns="http://www.w3.org/2000/svg" width="375" height="198" fill="none"><path fill="#ECEBEB" fill-rule="evenodd" d="M205.338 6.299v117.293l31.119-5.596V14.403L205.338 6.3Z" clip-rule="evenodd"/><path fill="#F7F7F7" fill-rule="evenodd" d="m187.178 12.65 18.21-6.347v117.313l-18.21-3.262V12.65Z" clip-rule="evenodd"/><path fill="#F7F7F7" fill-rule="evenodd" d="m-14.907 20.797 202.247 33.98v.756L-14.907 27.272v-6.475Z" clip-rule="evenodd"/><path fill="#ECEBEB" fill-rule="evenodd" d="M-14.907 20.797 187.18 54.769v.24L-14.907 23.118v-2.321Z" clip-rule="evenodd"/><path fill="#F7F7F7" fill-rule="evenodd" d="m11.777 31.003-.908 84.541h5.783V31.689l-4.875-.686Z" clip-rule="evenodd"/><path fill="#ECEBEB" fill-rule="evenodd" d="M15.157 31.42v84.124h1.495V31.689l-1.495-.27Z" clip-rule="evenodd"/><path fill="#F7F7F7" fill-rule="evenodd" d="M43.536 35.377v76.554h3.88V35.974l-3.88-.597Z" clip-rule="evenodd"/><path fill="#ECEBEB" fill-rule="evenodd" d="M46.235 35.762v76.17h1.182V35.975l-1.182-.213Z" clip-rule="evenodd"/><path fill="#F7F7F7" fill-rule="evenodd" d="M70.034 39.104v71.339h3.802V39.64l-3.802-.536Z" clip-rule="evenodd"/><path fill="#ECEBEB" fill-rule="evenodd" d="M73.203 39.537v70.906h.633V39.64l-.633-.103Z" clip-rule="evenodd"/><path fill="#F7F7F7" fill-rule="evenodd" d="m-4.351 119.698 191.811-21.68v-1.494L-4.351 114.655v5.043Z" clip-rule="evenodd"/><path fill="#F7F7F7" fill-rule="evenodd" d="M113.723 44.88v59.985h2.413V45.157l-2.413-.276ZM130.931 47.392l2.013.288v55.293h-2.013V47.392Z" clip-rule="evenodd"/><path fill="#E3E3E3" fill-rule="evenodd" d="M187.185 89.675h-5.598s-6.467.628-7.427 7.47c0 0-.781 8.915 7.427 12.601l-.367 1.935 3.697.355.537-2.737h-2.141s-8.027-4.302-7.486-12.154c0 0 .643-5.43 5.76-6.099l5.588-.191c0-.493.01-1.18.01-1.18Z" clip-rule="evenodd"/><path fill="#F7F7F7" fill-rule="evenodd" d="m146.704 49.641.55 52.251h1.609l-.707-52.25h-1.452ZM83.416 30.624v79.358s8.51 2.383 17.018 0V30.624s-2.965-2.126-8.509-2.126c-5.544 0-8.509 2.126-8.509 2.126Z" clip-rule="evenodd"/><path fill="#ECEBEB" fill-rule="evenodd" d="M94.602 111.055a32.008 32.008 0 0 0 5.832-1.073V30.624s-3.316-1.682-5.651-1.965c-.18 1.965-.18 80.188-.18 82.396Z" clip-rule="evenodd"/><path fill="#F4F4F4" fill-rule="evenodd" d="M360.119 5.229v130.544s9.262 5.889 28.705 3.179V3.674S382.277.07 374.472.07c-7.806 0-14.353 5.158-14.353 5.158Z" clip-rule="evenodd"/><path fill="#F7F7F7" fill-rule="evenodd" d="M311.132 39.077v70.559l35.924 2.475V30.979l-35.924 8.098Z" clip-rule="evenodd"/><path fill="#E5E5E5" fill-rule="evenodd" d="m236.342 82.142 74.842 3.416v1.076l-74.842-1.076v-3.416Z" clip-rule="evenodd"/><path fill="#F1EFEF" fill-rule="evenodd" d="M247.399 85.725v26.787l.781-.128v-26.66h-.781ZM270.053 85.995v22.445l.781-.128V85.995h-.781Z" clip-rule="evenodd"/><path fill="#F1EFEF" fill-rule="evenodd" d="m236.391 114.521 74.804-13.514v.583l-74.804 13.927v-.996Z" clip-rule="evenodd"/><path fill="#F2F2F2" fill-rule="evenodd" d="m146.142 112.59.718-3.28 7.935.581s.783 1.095 0 1.741l-8.653.958Z" clip-rule="evenodd"/><path fill="#F7F7F7" fill-rule="evenodd" d="M142.511 109.488h-1.255l-1.103 2.384a.27.27 0 0 0 .23.383l5.759.327.154-.636-3.872-.412a.27.27 0 0 1-.237-.318l.324-1.728Z" clip-rule="evenodd"/><path fill="#F2F2F2" fill-rule="evenodd" d="m154.323 112.827.555-3.265 8.277.6s.784 1.095 0 1.74l-8.832.925Z" clip-rule="evenodd"/><path fill="#F7F7F7" fill-rule="evenodd" d="M150.872 109.758h-1.255l-1.103 2.383a.27.27 0 0 0 .231.383l5.581.301.113-.656-3.653-.366a.27.27 0 0 1-.238-.319l.324-1.726Z" clip-rule="evenodd"/><path fill="#E3E3E3" fill-rule="evenodd" d="m165.591 89.76-22.889-.32s-6.467.629-7.427 7.47c0 0-.781 8.916 7.427 12.602l-.256 1.353a.54.54 0 0 0 .479.638l2.62.252a.541.541 0 0 0 .582-.434l.316-1.613a.54.54 0 0 0-.53-.644h-1.485s-8.027-4.301-7.486-12.154c0 0 .643-5.429 5.76-6.098l22.889-.465v-.587Z" clip-rule="evenodd"/><path fill="#E3E3E3" fill-rule="evenodd" d="m177.62 89.863-26.583-.188s-6.467.628-7.427 7.47c0 0-.781 8.915 7.427 12.601l-.256 1.353a.54.54 0 0 0 .479.638l2.62.252a.54.54 0 0 0 .582-.433l.316-1.613a.54.54 0 0 0-.53-.644h-1.485s-8.027-4.302-7.486-12.154c0 0 .643-5.43 5.76-6.099l26.583-.596s1.081-.091 1.846 0c.764.092 1.609.414 1.609.414s-.743-.489-1.609-.74c-.866-.25-1.846-.26-1.846-.26ZM140.002 89.675h-22.909s-6.467.628-7.427 7.47c0 0-.781 8.915 7.427 12.601l-.256 1.353a.54.54 0 0 0 .479.638l2.62.252a.54.54 0 0 0 .582-.433l.316-1.613a.54.54 0 0 0-.53-.644h-1.485s-8.027-4.302-7.486-12.154c0 0 .643-5.43 5.76-6.099l22.909-.784s1.081-.092 1.846 0c.764.091 1.609.413 1.609.413s-.743-.488-1.609-.74c-.866-.25-1.846-.26-1.846-.26Z" clip-rule="evenodd"/><path fill="#F2F2F2" fill-rule="evenodd" d="m120.521 112.86.718-3.28 7.935.582s.783 1.095 0 1.74l-8.653.958Z" clip-rule="evenodd"/><path fill="#F7F7F7" fill-rule="evenodd" d="M116.89 109.758h-1.254l-1.103 2.384a.27.27 0 0 0 .229.383l5.759.327.154-.635-3.872-.413a.27.27 0 0 1-.237-.318l.324-1.728Z" clip-rule="evenodd"/><path fill="#352E28" fill-rule="evenodd" d="M272.856 27.218c.164.044.937 1.778 3.987 2.568 3.051.791 3.055 2.935 3.402 3.543.346.608.379 2.269 0 2.697-.38.427-.152-.15-.152-.15s.019-1.266-.815-2.547c0 0 .62 1.781-.808 1.781s-.257-.06-.196-.599c.062-.539-.127-1.347-.127-1.347s-.097 1.442-.615 1.53c-.519.086-.689 0-.689 0s-.434-1.29-1.074-1.748c-.64-.46-1.369-.227-1.625-.298a1.85 1.85 0 0 1-.482-.228s-.533-2.629-.606-3.417c-.083-.885-.2-1.505-.2-1.785Z" clip-rule="evenodd"/><path fill="#20354E" fill-rule="evenodd" d="m269.118 46.655-3.116-1.53-2.462-4.671-.17-3.141.545-.915 1.016.587 1.662 5.322 2.847 3.73-.322.618Z" clip-rule="evenodd"/><path fill="#F8CAAB" fill-rule="evenodd" d="M257.243 26.46s2.379 7.258 6.315 9.777c0 0 1.814 1.314 2.199 1.666 0 0 3.174.823 5.726-4.537 0 0 1.39-3.224 1.39-6.206 0 0 .948.482 1.381-.7 0 0 .063-1.264.591-2.868 0 0 .567-2.765-1.186-3.306h-1.165l-12.669-3.166-3.187 5.207.605 4.134Z" clip-rule="evenodd"/><path fill="#655547" fill-rule="evenodd" d="M260.481 17.202s-.211 1.121-2.12 2.764c-1.908 1.642-1.79 2.88-1.136 6.144 0 0-1.811-.59-1.811-4.86 0 0 .295-4.558 3.647-8.149 0 0 5.065-3.777 10.287-.764 0 0 3.041 1.905 4.316 7.932 0 0-1.874.67-1.275 2.387 0 0-.864.915-1.613 0 0 0 0-2.69-1.849-2.69-1.848 0-2.558-1.416-4.937-1.614-2.378-.199-2.092-.1-2.722-.189-.63-.09-.787-.961-.787-.961Z" clip-rule="evenodd"/><path fill="#3B5161" fill-rule="evenodd" d="M272.352 123.319s-.885 3.114 0 5.249c0 0 .636 1.289.636 3.312 0 0 .636 3.057 0 4.837 0 0-.892.519-.636 3.814 0 0-.519 4.788-1.03 5.535 0 0-.992 3.279 0 5.412 0 0-.912 5.979-.456 7.563 0 0-.461 2.984 1.206 4.063 0 0 3.405.314 5.584 2.761 0 0 1.549-1.131 2.226-3.659.677-2.527 1.52-6.251 2.359-7.788 0 0 1.759-6.747 1.759-9.826 0 0 .023-8.177.635-10.716 0 0 1.314-9.033 1.967-9.795v-.762l-13.614-.629-.636.629Z" clip-rule="evenodd"/><path fill="#304D63" fill-rule="evenodd" d="M272.988 136.717c-.316.54-.636-.361-.636 3.814 0 0-.519 4.788-1.03 5.535 0 0-.992 3.279 0 5.411 0 0-.912 5.98-.456 7.564 0 0-.563 4.592.648 6.107 0 0 3.963-1.73 6.142.717 0 0 3.322-.622 3.322-4.045 1.263-1.477.424-5.865 1.263-7.402 0 0 1.759-6.747 1.759-9.826 0 0 .096-6.089.259-8.028-2.018-.398-9.063.672-11.271.153Z" clip-rule="evenodd"/><path fill="#274156" fill-rule="evenodd" d="M273.172 132.963c.155 1.418 0 1.566 0 2.397 0 .337-.497.904-.497 1.772 0 0 5.302.916 7.398 1.073 4.014.299 4.069.47 4.069.47.05-.845.179-2.464.313-4.163 0 0-2.772-.137-6.301-.504-3.53-.368-4.982-1.045-4.982-1.045Z" clip-rule="evenodd"/><path fill="#EBBFA1" fill-rule="evenodd" d="M272.943 27.187s.741 6.678 2.203 8.732c0 0 .508 1.298-.252 2.614 0 0-1.575 3.636-3.465 4.852 0 0-1.037 1.387-1.037 2.91 0 0-2.217-.198-3.893-2.742 0 0-1.464-2.98-1.905-6.044v-.522s.919.662 1.334.956c0 0 1.282.214 2.568-.563 0 0 1.836-1.405 3.071-4.254 0 0 .846-1.97 1.278-5.074l.027-.9.071.035Z" clip-rule="evenodd"/><path fill="#20354E" fill-rule="evenodd" d="M273.79 32.42s.489.12.649.251l1.309 2.172-.199 3.955-2.415 3.645-2.702 3.669s-.221-1.715 1.586-3.339c.8-.719 1.614-1.629 2.097-2.653.607-1.287.787-2.74.856-4.04 0 0-.483-1.172-.687-1.804-.19-.588-.494-1.856-.494-1.856Z" clip-rule="evenodd"/><path fill="#4993F3" fill-rule="evenodd" d="M274.438 32.42s1.928.21 2.468 2.244c0 0 2.41.091 3.342.6 0 0 5.931-.187 7.469.454 0 0 5.861 5.54 9.423 15.557 0 0 1.364 4.14 2.009 4.784 0 0 .748 1.737.748 2.795 0 0 .168 1.338.471 1.736 0 0 .47 1.814 0 2.38 0 0-.419 1.265-1.219 1.731 0 0-1.854 1.32-2.575 2.062 0 0-5.443 2.615-8.588 2.615 0 0-2.166-5.101-2.019-5.566.147-.464.874-1.15 1.312-1.15 0 0 .888-.249 1.212-.825 0 0 .62-.734 1.316-.734 0 0 .648.33 1.081 0 0 0-.52-.863.243-1.105 0 0-.78-.51-.124-.998 0 0-.899-.878-.635-2.044 0 0-2.405-2.25-3.093-4.54 0 0 .688 3.454 0 5.101 0 0-.524 4.523-.087 5.09 0 0-.341-.07-.431.054-.09.125-.36.396-.36.396s-1.207.907-1.832.598c0 0-1.873-7.47-4.008-10.866l-.732-.373s-2.163.05-3.485.373c0 0-3.49.373-4.801 0 0 0-6.421.498-7.48 1.117 0 0-2.283.75-1.513 0 0 0 .366-.807-.775-.403 0 0-.862.404-1.456.404l-1.785.594s-.37.543.332 1.558c0 0 .852 2.188 1.676 4.86 0 0 1.233 3.12 1.233 4.52 0 1.399.009 5.672.392 6.19 0 0 .383 7.044.383 9.166l.25 2.481s-.056.208-.114.25c-.146.104-.322.055-.354.046-2.268-.62-3.773.099-4.515 2.155 0 0-1.583.52-1.583-1.575 0 0-.099-2.114-.78-3.844 0 0-1.721-2.436-1.721-4.932 0 0-.809-3.933-.405-6.273 0 0-1.62-7.07-1.62-10.4 0 0-.867-6.138-.433-10.185 0 0-.098-1.15.433-1.808 0 0-.249-1.2.686-1.69 0 0 .104-.888.288-1.076 1.059-1.08 1.678-1.306 2.071-1.306 0 0 3.541-1.836 4.853-2.633l2.944-1.313s-.309-1.916.916-2.362c0 0 .597 0 .463.975 0 0 .293 5.371 4.126 8.384 0 0 .72.29 2.238.462 0 0 .361-2.684 1.25-2.684 0 0 1.853-1.709 3.175-4.185 0 0 1.662-4.276-.184-5.978 0 0-.155-.154-.227-.433-.071-.278.131-.451.131-.451Z" clip-rule="evenodd"/><path fill="#579FFD" fill-rule="evenodd" d="M287.717 35.718s5.861 5.54 9.423 15.557c0 0 1.364 4.14 2.009 4.784 0 0 .748 1.737.748 2.795 0 0 .168 1.338.471 1.736 0 0 .47 1.814 0 2.38 0 0-.419 1.265-1.219 1.731 0 0-1.854 1.32-2.575 2.062 0 0-5.443 4.666-8.559 4.666 0 0-2.195-7.152-2.048-7.617.147-.464.874-1.15 1.312-1.15 0 0 .888-.249 1.212-.825 0 0 .62-.734 1.316-.734 0 0 .648.33 1.081 0 0 0-.52-.863.243-1.105 0 0-.78-.51-.124-.998 0 0-.899-.877-.635-2.044 0 0-2.405-2.249-3.093-4.54 0 0-.529-.16-.872-1.14-.243-.944-.591-7.092 0-11.2.34-2.362.931-4.516 1.31-4.358ZM258.373 54.652s-.209.338.493 1.353c0 0 .852 2.188 1.676 4.86 0 0 1.233 3.12 1.233 4.52 0 1.399.009 5.672.392 6.19 0 0 .383 7.044.383 9.166 0 0 .412 1.68.361 2.88-.051 1.198-.503 1.772-.561 1.814-.146.105.033-1.806 0-1.815-2.268-.62-2.997 2.231-3.739 4.288 0 0-2.377-1.648-2.377-3.81 0 0-.114-2.094-.795-3.824 0 0-1.706-2.456-1.706-4.952 0 0-.809-3.933-.405-6.273 0 0-1.62-7.07-1.62-10.4 0 0-.867-6.137-.433-10.185 0 0-.098-1.15.433-1.808 0 0-.249-1.2.686-1.69 0 0 1.13.471 2.641 1.69.864.696 1.078 3.367 1.93 4.294.905.984.674 2.554.852 3.112.129.404.556.59.556.59Z" clip-rule="evenodd"/><path fill="#2E63A6" fill-rule="evenodd" d="M262.758 47.726s2.763-.262 4.658-1.288c0 0 2.046-.298 3.321-.18 0 0-.089-.118-.973-.194-.308-.027-.646-.153-1.036-.203 0 0-.742.37-1.157.114-.414-.255-.591-.397-.591-.397l-1.602.31-2.62 1.541v.297Z" clip-rule="evenodd"/><path fill="#4B4B4B" fill-rule="evenodd" d="M250.995 170.977s.59-4.704-.789-4.704c-.339 0-2.867.355-3.734.18-1.766-.357-2.884-1.422-3.343-1.536-.441-.109-3.69 3.514-4.103 3.767-.413.253-2.159 2.496-2.906 2.836 0 0-2.523 1.329-2.927 1.773 0 0-1.264 1.729-.337 2.458 0 0 .78 1.102 5.109.736 0 0 4.144-.734 4.144-1.826 0 0 3.731-2.253 5.015-2.253l3.871-1.431Z" clip-rule="evenodd"/><path fill="#3571BD" fill-rule="evenodd" d="m285.24 64.131.721-.155s.137-.456.296-.646c.418-.5.974-.668.974-.668l-.43-.222s-2.006-1.166-2.929-2.786l1.368 4.477ZM262.716 47.711s-.57-1.916-.57-2.657c0-4.36.406-6.393.406-6.393s-.304-1.891.921-2.336c0 0 .756.073.622 1.047 0 0 .224 5.082 4.093 8.359.02.017.3.112.636.218 0 0-.509.27-.84.23-.332-.042-.68-.33-.765-.392-.086-.062-.143-.018-.183 0-2.633 1.151-3.846 2.06-4.32 1.924Z" clip-rule="evenodd"/><path fill="#2E63A6" fill-rule="evenodd" d="M274.426 43.247s-2.907-.414-3.488.623c0 0 .581-.383.825-.442.413-.099 1.066 0 1.066 0s3.802 1.674 4.651.772c0 0-1.895-.422-3.054-.953Z" clip-rule="evenodd"/><path fill="#3571BD" fill-rule="evenodd" d="M274.436 32.413s2.022.213 2.562 2.248c0 0 .568 1.233.334 2.052-.072.25.259 3.507 0 5.342-.112.788.151 2.147.151 2.147s-2.134-.41-2.952-.512c-1.974-.245-2.873-.39-2.81-.39 0 0 1.672-1.565 2.994-4.04 0 0 1.663-4.26-.184-5.962 0 0-.155-.154-.226-.433-.072-.279.131-.452.131-.452Z" clip-rule="evenodd"/><path fill="#3B5161" fill-rule="evenodd" d="M266.02 123.043s.032 2.808-.937 4.779c0 0-1.989 5.435-1.989 6.835 0 0-3.721 7.157-3.721 10.625 0 0-2.124 4.391-2.124 5.898 0 0-2.958 8.734-2.958 10.165 0 0-.917 4.154-3.457 5.442 0 0-1.439-.829-3.316-.436-1.877.394-2.741-.937-3.446-1.207-.515-.198-1.042.177-1.388-.119 0 0-.575-3.195.555-5.043 0 0 .174-.664.174-3.125 0 0 .596-2.593 1.468-3.594 0 0 .521-2.346 1.443-3.304 0 0 .613-1.451 0-2.672 0 0 .015-3.182 1.194-4.286 0 0 .423-2.284 1.149-2.684 0 0-.34-3.127.373-4.206 0 0 1.463-10.129 3.552-13.959l.538-.992 12.89.992v.891Z" clip-rule="evenodd"/><path fill="#304D63" fill-rule="evenodd" d="M262.387 136.111s-3.014 5.703-3.014 9.171c0 0-2.124 4.391-2.124 5.898 0 0-2.958 8.734-2.958 10.165 0 0-.775 4.613-2.888 5.665 0 0-2.008-1.052-3.885-.659-1.877.394-2.741-.937-3.446-1.207-.515-.198-1.042.177-1.388-.119 0 0-.575-3.195.555-5.043 0 0 .174-.664.174-3.125 0 0 .596-2.593 1.468-3.594 0 0 .521-2.346 1.443-3.304 0 0 .613-1.451 0-2.672 0 0 .015-3.182 1.194-4.286 0 0 .423-2.284 1.149-2.684 0 0 .397-4.691 1.109-5.77 0 0 10.348 1.564 12.611 1.564Z" clip-rule="evenodd"/><path fill="#274156" fill-rule="evenodd" d="M249.794 131.258a22.2 22.2 0 0 1-.433 1.548c-.188.578-.419 1.267-.679 2.027 0 0 6.274.68 9.453 1.107 3.327.447 3.998.742 3.998.742.264-.771.978-.974.978-1.967 0-.334.136-.965.217-1.591 0 0-3.7-.896-6.081-1.246-2.305-.339-7.453-.62-7.453-.62Z" clip-rule="evenodd"/><path fill="#4A6980" fill-rule="evenodd" d="M262.648 38.63s-.229 2.839-.806 4.043v3.267c0 1.095-1.432 4.919-1.432 6.611 0 0-.461.987-.123 1.355 0 0 3.329-1.565 2.238.28 0 0 2.757-.837 5.053-1.07 2.296-.233 5.003-.565 7.711-.355 0 0 1.946.003 2.357-.51 0 0 .315-.584.315-2.313 0 0-.324-7.598-.425-9.105-.101-1.508.002-1.708 0-2.342-.002-.722.061-1.281-.201-1.69l-.333-2.139s.644 0 .896-.036c.252-.037.784.19.784.19s.354 1.475.439 3.181c.084 1.706.342 4.375.342 5.82 0 1.447.466 6.87 0 8.568 0 0 .971-.135 1.489.531 0 0 1.937 3.773 2.768 6.119 1.169 3.304 2.014 7.327 3.368 11.413 0 0 .984 1.656.984 3.432 0 0 .406 1.58.967 2.214 0 0 .587 1.315.587 2.987 0 0 1.558 2.488 1.558 5.224 0 0 .626 6.922 2.892 13.567 0 0 1.615 3.886.807 8.51 0 0-1.461 12.993-1.461 15.553 0 0 0 1.99-1.614 1.99 0 0-3.963.163-5.948-.469 0 0-5.442.574-9.226-.474 0 0-6.819-.473-14.325 0 0 0-6.814-.367-9.343-1.047 0 0 1.399-15.811 2.527-19.937 0 0 .203-4.396 1.142-5.836 0 0 1.139-.09.57-2.36 0 0-.761-1.18 0-2.476 0 0 .118-2.937 1.255-3.535 0 0 4.015-2.11 4.66-3.486 0 0-.811-3.62-.811-4.423 0 0 1.321-2.652 0-4.839l-.535-6.247-.092-3.405s-2.134-8.26-3.326-10.21c0 0 .001-.998.627-3.767 0 0 1.181-4.427 1.304-6.136.123-1.709.117-4.589 1.395-6.2l.966-.448Z" clip-rule="evenodd"/><path fill="#385469" fill-rule="evenodd" d="M279.435 83.554c-2.496 2.075-7.028 5.725-9.767 5.303 0 0 .061-2.421 1.535-4.693 0 0 .906-.905 1.293-1.232 0 0-1.537 1.785-1.504 2.722.032.937 7.242-1.603 10.939-5.666 0 0 0 1.492-2.496 3.566Z" clip-rule="evenodd"/><path fill="#E8E8E8" fill-rule="evenodd" d="m274.235 80.025-42.221 97.406-1.873-.827 44.565-104.258-.471 7.68Z" clip-rule="evenodd"/><path fill="#ADACAC" fill-rule="evenodd" d="m274.196 80.118-42.189 97.3-.822-.579 42.82-99.038.191 2.317Z" clip-rule="evenodd" opacity=".795"/><path fill="#061D2C" fill-rule="evenodd" d="M272.605 77.254s-.083-.46.529-1.913l1.443-3.638h.099l2.765.93s-1.608 4.74-1.958 5.348c-.349.609-2.131-.208-2.878-.727Z" clip-rule="evenodd"/><path fill="#FFCEAD" fill-rule="evenodd" d="m286.119 63.938-2.267.494s-3.247.839-4.282 2.024c0 0-2.336 1.98-3.111 2.3 0 0-1.777.796-2.424 1.116-.646.321-.725.942-1.011 1.39 0 0-.659 1.204-.988 1.684-.329.48.026 2.263-.404 2.528 0 0 1.31.42 1.751-2.053 0 0 .764-1.599 1.168-1.599 0 0-.041 2.008-.384 2.79 0 0-.384 2.813 0 5.555 0 0 .641.3.943-.308 0 0 .396-1.98.396-3.574 0 0 .953-2.558.953-3.51 0 0 .574 1.46 0 3.51 0 0-.16.908.857.908 0 0 .527-.258 1.043-3.106l-.408 2.057s1.137.585 1.619-.8c0 0 .745 1.002 1.993-.652 0 0 .215-.605.471-.605 0 0 .513-.112.389-1.049 0 0 .681-.329.681-2.383 0 0 .362-.987 1.689-.703 0 0 1.777 0 3.296-.443 0 0 0-2.093-.629-3.806-.596-1.623-1.341-1.765-1.341-1.765Z" clip-rule="evenodd"/><path fill="#F5BE98" fill-rule="evenodd" d="M281.767 66.39s-2.634 1.685-3.408 2.005c-.774.32-3.162 1.94-3.808 2.26-.646.321-.674.522-.959.97 0 0-.592.933-.921 1.413-.329.48-.202 2.212-.632 2.477 0 0 .903.378 1.344-2.094 0 0 .764-1.599 1.168-1.599 0 0-.041 2.008-.384 2.79 0 0-.384 2.813 0 5.555 0 0 .641.3.943-.308 0 0 .395-1.98.395-3.574 0 0 .954-2.558.954-3.51 0 0 .574 1.46 0 3.51 0 0-.16.908.857.908 0 0 .527-.258 1.043-3.106l-.408 2.058s1.137.584 1.619-.8c0 0 .745 1 1.993-.653 0 0 .215-.605.47-.605 0 0 .514-.112.39-1.049 0 0 .681-.329.681-2.383 0 0 .362-.987 1.689-.703 0 0 1.777 0 3.296-.443 0 0 0-3.002-1.128-4.915-1.818.937-4.159.61-5.194 1.796Z" clip-rule="evenodd"/><path fill="#B48463" fill-rule="evenodd" d="M277.977 76.157s.293-.569.293-1.023c0-.343.359-1.096.394-1.38.012-.092-.186.068-.278.205-.092.137-.18.703-.269 1.175l-.222.982.082.041Z" clip-rule="evenodd"/><path fill="#061D2C" fill-rule="evenodd" d="m252.958 123.226 2.089 1.056s.384-.35.587-.815c.203-.465.194-.974.194-.974l-2.128-1.008s-.409.361-.568.746c-.16.384-.174.995-.174.995Z" clip-rule="evenodd"/><path fill="#FFCEAD" fill-rule="evenodd" d="M257.862 85.729s1.182 2.942 1.182 3.813c0 0 .375 2.44.718 2.971 0 0 .428 1.816.428 2.602 0 0-.468 4.36 0 4.921 0 0-.131 2.039-.428 2.48 0 0 .131 2.241.909 2.716 0 0 .781-1.761 1.143-2.609 0 0 .708-1.184.478-1.832 0 0 .777-.873 1.131-1.796 0 0-.011 2.512.711 3.017 0 0 1.219.372 1.49-.91 0 0 .009-.925-.274-2.108 0 0-.128-2.714.274-3.88 0 0 .577-1.87-1.202-3.721 0 0-2.436-3.33-2.048-5.906V83.63s-1.438-.742-2.868-.102-1.644 2.2-1.644 2.2Z" clip-rule="evenodd"/><path fill="#F5BE98" fill-rule="evenodd" d="M258.223 84.84s1.951 3.2 1.951 4.07c0 0 1.319 5.008 1.319 5.793 0 0-.935 4.735-.468 5.297 0 0-.057 2.182-.354 2.623 0 0-.423 1.692.354 2.167 0 0 .427-1.319.789-2.167 0 0 .708-1.184.478-1.832 0 0 .777-.873 1.131-1.796 0 0-.011 2.512.711 3.017 0 0 1.219.372 1.49-.91 0 0 .009-.925-.274-2.108 0 0-.128-2.714.274-3.88 0 0 .577-1.87-1.202-3.721 0 0-2.436-3.33-2.048-5.906V83.63s-1.438-.742-2.868-.102-1.283 1.311-1.283 1.311Z" clip-rule="evenodd"/><path fill="#385469" fill-rule="evenodd" d="M267.348 96.073s7.253.2 14.65-3.836l1.127-.645s.512-.244.512.364c0 0-5.785 4.753-12.381 6.85 0 0-2.943 1.06-4.538.742l.63-3.475Z" clip-rule="evenodd"/><path fill="#F5BE98" fill-rule="evenodd" d="m262.452 107.205.721-1.662s.89.906.094 1.662c-.143.083-.321.083-.452.083a1.15 1.15 0 0 1-.363-.083ZM263.777 104.135l.887-2.038s1.193-.174.887-2.041c0 0 .291-.845.438-1.144.159-.323.342-.527.366-.75.067-.646.482-1.07.661-1.47 0 0 .501-1.956 1.5-.817 0 0-.544 1.666-.873 2.334 0 0-.627 1.927-.627 3.083 0 0-.121 1.65-1.743 2.472l-1.496.371Z" clip-rule="evenodd"/><path fill="#D8D8D8" fill-rule="evenodd" d="M271.818 172.285s.073 2.456 2.27 3.115c0 0 4.964.824 6.71-1.44 0 0 .213-1.154-.181-1.843l-8.799.168Z" clip-rule="evenodd"/><path fill="#4B4B4B" fill-rule="evenodd" d="M271.41 167.824s-.481 5.209 1.802 5.699c0 0 5.322 1.193 7.406-1.402 0 0-.275-.868-.788-2.583-.513-1.714-2.08-3.789-2.08-3.789s-2.248-2.312-5.83-.429l-.51 2.504Z" clip-rule="evenodd"/><path fill="#D8D8D8" fill-rule="evenodd" d="M251.026 170.758s.41 1.943 0 2.742c0 0-3.404 1.47-4.475 1.47 0 0-1.156-.775-1.967 0 0 0-1.011 1.215-1.469 1.215 0 0-5.131 2.082-8.105 1.728 0 0-2.555-.442-2.555-1.026 0 0-.008-1.277.436-1.277 0 0 .16.954 3.45.954 0 0 3.253-.197 5.502-1.905 2.249-1.709 4.988-2.57 6.64-2.94 1.652-.369 2.543-.961 2.543-.961ZM228.883 187.974s5.31 1.372 7.33 1.372c0 0 5.948.294 7.077.678 0 0 3.696.764 5.074.764 0 0 1.001.496 1.698.496 0 0 1.986.598 1.17 2.357 0 0-1.492 1.488-2.868 2.478 0 0-2.425.661-2.425 1.182 0 0-.785 1.059-1.849.374 0 0-.359-.633-.8-1.095-.441-.461-1.365 0-2.239 0 0 0-1.496-.336-2.2-.834-.705-.498-5.066-.549-5.876-.523-.811.025-3.813-.172-4.678-.722-.864-.55-5.691-.86-6.372-.86-.682 0-4.379-1.075-5.797-1.075-1.418 0-4.01-1.282-5.636-1.282-1.626 0-3.978-.992-5.132-.496-1.155.496-3.577-.125-3.868-.445-.292-.319-1.28-1.032-.64-1.7.64-.669 1.451-.716 2.075-.994.625-.278 3.513-1.345 4.044-2.184.532-.839 1.134-1.575 2.327-1.575 1.194 0 2.017 1.021 3.158 1.021 1.142 0 4.156 1.049 4.638 1.049.483 0 3.345.72 3.724.72.378 0 2.604.546 1.855.546l2.543 2.12 3.667-1.372Z" clip-rule="evenodd"/><path fill="#061D2C" fill-rule="evenodd" d="M230.022 176.494s.138-.182.246-.182c1.11.326 1.603.681 1.827.904.055.056.088.145.04.343 0 0-1.637 3.156-.866 3.531 0 0-2.619 3.854-3.011 5.523 0 0 .465 1.166-.229 1.573 0 0-2.35.164-2.774-.376 0 0-.5-1.1.853-2.148 0 0 1.691-3.846 1.921-5.766 0 0 .647-.38.835-.673.528-.824 1.158-2.729 1.158-2.729Z" clip-rule="evenodd"/><path fill="#061D2C" fill-rule="evenodd" d="M204.006 188.774s4.101.141 6.578.863c0 0 7.444 1.338 9.147 1.635 0 0 8.362 2.097 9.329 1.769 0 0 6.368.563 8.289 1.016 0 0 6.208 1.281 6.624 1.281 0 0 1.602.321 2.295-.48l2.762-2.414s-.246-.208-1.191-.69c0 0-5.681-.993-6.468-1.338 0 0-4.494-.644-8.815-1.143 0 0-3.041-1.409-4.457-1.409 0 0-1.925.85-2.905-.423 0 0-5.351-.778-8.268-.778 0 0-4.889-.463-5.616-1.038 0 0-1.288-.41-2.337 0l-4.967 3.149Z" clip-rule="evenodd"/><path fill="#3571BD" fill-rule="evenodd" d="M271.02 46.496s2.334.26 1.265 4.983c0 0-.178.479-.287.479-.109 0 .156-2.83-.29-4.002-.446-1.172-.688-1.46-.688-1.46ZM264.736 53.595s.102-1.079 2.791-3.602c0 0 .054-.173-.181-.118 0 0-1.946 1.262-2.817 2.184-.871.922-1.148 1.487-1.767 2.055 0 0 .63-.18.939-.263.334-.088 1.035-.256 1.035-.256ZM274.391 52.71s-.089-.476.297-.877c.387-.4.656-1.053.656-1.053s-.647.598-1.029.92c-.346.291-.804.62-1.156.996l1.232.015Z" clip-rule="evenodd"/><path fill="#B48463" fill-rule="evenodd" d="M279.647 75.44s.11-.512.11-1.014c0-.464.362-.765.334-.893-.014-.066-.225.119-.255.206s-.13.277-.16.76c-.03.481-.105.848-.105.848l.076.094Z" clip-rule="evenodd"/><path fill="#2E63A6" fill-rule="evenodd" d="M288.088 69.51s.158 2.048-.075 1.918c0 0-.109-.176-.147-.3-.142-.458-.391-1.461-.391-1.461l.318-.08c.147-.037.295-.078.295-.078ZM257.866 85.692s-.152.473-.187.744c-.034.27-.034.576 0 .72 0 0 .243.223.367.326.134.11.407.313.407.313l.154-.082-.289-.808-.452-1.213ZM262.377 83.633v1.617s.205-.155.274-.302c.169-.36.237-.751.214-.872-.048-.244-.488-.443-.488-.443Z" clip-rule="evenodd"/><path fill="#347BD6" fill-rule="evenodd" d="M290.472 61.268s.088.306 1.477.02c0 0 1.178.015 1.252.17 0 0 .649.312 1.16.312 0 0-.758-.622-1.42-.799 0 0-.731.14-1.084 0 0 0-.777.041-.97.133 0 0-.123.082-.191.109-.071.027-.224.055-.224.055ZM290.93 60.082s.335.226 1.236-.043c0 0 .417-.005.91.288 0 0 .133.042-.045-.175 0 0-.552-.663-1.632-.256l-.347.047.08.055s-.038.009-.096.033c-.059.024-.106.051-.106.051Z" clip-rule="evenodd"/><path fill="#385469" fill-rule="evenodd" d="M262.338 75.112s3.608-.666 6.046 1.011c0 0 .872.855 0 1.553 0 0-3.149.448-3.841 1.363 0 0-.748 1.083-2.205.914 0 0 .68-1.762.68-2.688 0-.823-.68-2.153-.68-2.153ZM257.217 93.807s2.148.366 2.874 2.584c0 0 .239 1.058-1.698.456 0 0-.892-.89-1.755-.671 0 0 .606-.375.714-.792.093-.357-.135-1.577-.135-1.577Z" clip-rule="evenodd"/><path fill="#DFA984" fill-rule="evenodd" d="M273.12 21.343s.075-.146.535-.146.824 1.618.824 2.37c0 0 .378-1.47-.506-2.64 0 0-.181-.165-.373-.11-.398.11-.48.526-.48.526Z" clip-rule="evenodd"/><path fill="#DFA984" fill-rule="evenodd" d="M272.857 22.689s-.029-.897.695-.598c0 0 .675.787.218 1.515 0 0-.605.276-.605 1.075 0 0-.163.354-.308 0 0 0 .068-.863.308-1.244 0 0 .171-.411 0-.748h-.308Z" clip-rule="evenodd"/><path fill="#3D6F90" fill-rule="evenodd" d="M225.235 186.702s-.381-.222-.774 0-.357.742-.209 1.257c.149.515 2.174 1.937 4.237.821 0 0 .689-.265.689-.946 0-.681-.746-.625-.746-.625s0 .77-.3.89c0 0-1.998.779-2.93-.491 0 0-.066-.232-.066-.399 0-.135.099-.507.099-.507Z" clip-rule="evenodd"/><ellipse cx="173.173" cy="167.178" fill="#D5D5D5" rx="2.995" ry="2.998"/><ellipse cx="173.446" cy="167.451" fill="#22191A" rx="1.906" ry="1.908"/><ellipse cx="213.88" cy="164.862" fill="#D5D5D5" rx="2.587" ry="2.589"/><ellipse cx="178.891" cy="172.629" fill="#D5D5D5" rx="3.267" ry="3.271"/><ellipse cx="222.32" cy="169.495" fill="#D5D5D5" rx="3.131" ry="3.134"/><ellipse cx="222.32" cy="169.495" fill="#22191A" rx="1.77" ry="1.772"/><path fill="#94ADCB" fill-rule="evenodd" d="m172.316 139.82 3.266-8.077s1.612-4.16 6.34-2.888c0 0 1.732.61 6.457 3.935l-5.815-.131-3.855 6.703-3.215 1.053-3.178-.595Z" clip-rule="evenodd"/><path fill="#7797BD" fill-rule="evenodd" d="m173.054 140.236 3.266-8.077s1.325-3.365 5.022-2.584c0 0 1.77.406 6.495 3.73l-5.273-.646-3.855 6.702-3.215 1.054-2.44-.179Z" clip-rule="evenodd"/><path stroke="#DFDFDF" stroke-width="1.36" d="m202.288 132.973-2.253 2.845"/><path fill="#016BD9" fill-rule="evenodd" d="m169.087 140.052.523 6.408 3.548 11.345v3.342l1.974 1.717 15.117.504 6.89-1.123.085-24.482-4.073-2.166s-1.105-.143-1.46-.143c-2.612-2.311-6.483-5.011-7.11-5.011 0 0-3.086-.267-4.612 2.231l-3.077 7.002-2.778.176s-.508.013-.878-.049c-.37-.063-.726-.209-.726-.209l1.112-3.001h-4.012s-.772-.079-.772.433l-.47 1.435v.904l.719.687Z" clip-rule="evenodd"/><path fill="#0058B4" fill-rule="evenodd" d="M191.691 135.454c-2.612-2.311-6.483-5.011-7.11-5.011 0 0-3.086-.267-4.612 2.231l-3.077 7.002h.801l3.168-7.002s2.029-2.325 4.933-.804c2.905 1.521 6.243 3.891 5.897 3.584Z" clip-rule="evenodd"/><ellipse cx="213.88" cy="165.134" fill="#4D4D4D" rx="1.498" ry="1.499"/><path fill="#BE0604" fill-rule="evenodd" d="m193.576 135.846 4.675 2.451 20.456-.364h1.705s-3.078-2.413-7.386-2.631l-19.951.288.501.256Z" clip-rule="evenodd"/><path fill="#EC0620" fill-rule="evenodd" d="M220.669 139.126v6.346l-2.745 9.391s-.22.96-.22 1.47v4.82l-20.473.388v-23.26l22.817-.374s.621 0 .777.374c.157.374-.156.845-.156.845Z" clip-rule="evenodd"/><path fill="#D60300" fill-rule="evenodd" d="m220.669 139.126-23.438.609v-1.454l22.817-.374s.621 0 .777.374c.157.374-.156.845-.156.845Z" clip-rule="evenodd"/><path fill="#CDD2DC" fill-rule="evenodd" d="M173.173 159.237v1.913s1.089.859 2.131 1.241c0 0 .058-1.678.728-1.35l.565.393s.266.159.618.159h2.161s.349.014.517.234l.788 1.019 9.872-.455v-2.073s.036-.531.224-.948l6.707-24.898s.131-.559-.606-.911c0 0-3.183-1.677-5.221-2.167v1.465l1.428 2.732-1.267.034s-.533-.554-2.257-1.94v-3.363s.343-1.213 1.856-.992l8.399 3.529s.468.36.468 1.788l7.228 24.723v1.78l8.03-.525s.211-1.299.881-1.532a5.686 5.686 0 0 1 1.283-.278v-.984s1.653-.081 2.1 1.262c0 0 .147.871 1.218.871 0 0 .333.136.333.661l.273 3.113-14.118 1.782-16.095 1.122-15.385.547s-1.336.071-1.912-.3l-4.244-2.897-.306-2.558s-.305-2.086 0-2.844c0 0 .381-.301.688-.477.306-.175.639-.282.639-.282l2.276 1.406Zm19.048.562s8.053-.149 13.499-.916l-1.075-4.021s-1.879-1.726-5.675-1.52c0 0-3.429 0-5.512 2.346l-1.237 4.111Zm11.508-8.513-9.483.412 1.578-5.666c3.82-2.17 6.615.234 6.615.234l1.29 5.02Z" clip-rule="evenodd"/><path fill="#B7C1D5" fill-rule="evenodd" d="M215.542 160.625s.211-1.299.88-1.532a5.7 5.7 0 0 1 1.284-.278v-.984s1.653-.081 2.1 1.262c0 0 .215.526.371.66-2.028.565-4.635.872-4.635.872ZM175.304 162.391s.058-1.678.728-1.35l.565.393s.266.159.618.159h2.161s.349.014.517.234l.788 1.019h-3.979c-.522 0-.969-.234-1.398-.455Z" clip-rule="evenodd"/><path fill="#0058B4" fill-rule="evenodd" d="M168.367 138.478s-.339.411 0 .889l4.453 1.507s.636.244 2.081.244l8.653-.432s-.113 1.111.826 1.111l1.546-.116s1.004.015 1.004-1.226l9.084-.533s.164-.574.379-1.401l-21.713 1.284s-1.263.146-1.86-.125l-4.453-1.202Z" clip-rule="evenodd"/><path fill="#CDD2DC" fill-rule="evenodd" d="m211.008 139.002 7.491 11.624 2.377 4.611s.038.916-.688.916l-2.492-.516.803-2.758-.431-.997s-.194-.585-.372-.92l-7.535-10.971.847-.989Z" clip-rule="evenodd"/><path fill="#BEC3CD" fill-rule="evenodd" d="M186.109 140.973a.136.136 0 0 0-.036-.182l-.665-.48a.136.136 0 0 0-.195.038l-7.463 11.992s-.283.529-.59.859l-3.904 4.02s-.565.028-.565-.419c0 0-.547-1.714-1.897-1.933l.825-2.055-.559-1.737s-1.38 3.034-1.671 3.5c0 0-.204.557 0 1.391 0 0 .897 2.058 3.54 3.156 0 0 .519.343 1.06-.41l3.338-4.137s1.006-1.065 1.349-1.763l7.433-11.84Z" clip-rule="evenodd"/><path fill="#BCBCBC" fill-rule="evenodd" d="m190.872 134.765 8.917-12.842s-.557-1.041-1.419-1.041l-8.747 12.856 1.249 1.027Z" clip-rule="evenodd"/><path fill="#90929C" fill-rule="evenodd" d="M198.346 120.92s.182-1.079 1.282-2.067c0 0 .478-1.358 1.427-1.902 0 0 .41-1.231 1.383-2.079 0 0 .613-1.648 1.706-2.373 0 0 .93.006 1.668 1.111 0 0-.409 1.344-1.55 2.423 0 0-.653 1.515-1.474 2.077 0 0-.305 1.165-1.344 1.987 0 0-.713 1.619-1.651 1.849l-1.447-1.026Z" clip-rule="evenodd"/><path fill="#AAB0BC" fill-rule="evenodd" d="M219.351 164.093v.779s-1.674.066-.837 1.426c0 0 1.72.604 1.977 1.255 0 0 1.327 2.295 1.669 2.7 0 0 .834.479 1.102-.483l-.257-3.153s-.023-1.175-1.14-1.175c0 0-.427-.57-1.116-.57v-.995l-1.398.216Z" clip-rule="evenodd"/><path stroke="#DFDFDF" stroke-width="1.36" d="m199.266 154.437 32.094-41.767s2.815-3.919 0-3.919h-9.119s-1.621.576-3.073 2.95l-18.363 23.198"/><ellipse cx="179.027" cy="172.766" fill="#22191A" rx="2.042" ry="2.044"/><path fill="#AAB0BC" fill-rule="evenodd" d="M175.352 167.377v.823s-.725.024-.91.204c0 0-.148.636 0 .917 0 0 .492.654 1.509.654 0 0 1.349 1.364 2.62 3.445 0 0 .741.632 1.178-.367l-.529-3.732h-1.514s-.003-.917-.879-.917v-1.027h-1.475Z" clip-rule="evenodd"/><path fill="#BEC3CD" fill-rule="evenodd" d="M169.867 158.913v1.825l4.492 2.431s1.267.95 3.211.475l14.074-.728 15.999-1.105 12.487-1.073s1.175 0 1.175-.535l.309 3.524-13.971 1.777-15.999 1.2-15.2.652s-1.28.093-2.085-.28l-4.998-3.275s.511-.703 0-2.444v-2.444s.133-.456.506-.456v.456Z" clip-rule="evenodd"/><path fill="#004FA1" fill-rule="evenodd" d="m172.667 139.146.748-2.018h-3.357s-.414-.016-.498.336l-.202.836 3.309.846ZM191.818 135.625s2.278 2.202 1.244 2.717l3.087-.187s.438-.019 0-.328l-3.681-2.228-.65.026Z" clip-rule="evenodd"/><path fill="#AAB0BC" fill-rule="evenodd" d="m211.138 140.153 7.017 10.594 2.006 5.404-2.472-.515.29-.94.769.141-.101-1.964-.718-2.019-6.942-10.524.151-.177ZM197.94 137.264l-1.918 7.384s3.031-1.991 6.062 0l-2.128-7.384h-2.016ZM185.493 141.026l-7.337 11.956-4.568 5.239s-.238.325-.693.231c0 0-2.158-1.058-3.089-3.014 0 0-.131-.497.234-1.084l1.24-2.519.162.39-1.294 3.019s1.856.328 2.296 2.255c0 0 .708.631 1.26 0l4.297-4.599 7.402-11.945.09.071Z" clip-rule="evenodd"/><path fill="#D0D0D0" fill-rule="evenodd" d="m199.808 154.85 31.924-41.547s2.175-2.91 1.57-4.284c0 0-.687 2.394-1.993 3.76l-32.01 41.676.509.395ZM201.202 135.476l18.049-22.77s.584-.757.77-1.046c0 0 1.169-1.792 2.369-2.236h8.907s.793.031.793.259c0 0-.016-.613-.669-.74h-9.031s-1.499.475-2.825 2.505l-.765.954-18.321 22.915.056.159h.667Z" clip-rule="evenodd"/><path fill="#F19B02" fill-rule="evenodd" d="M309.741 191.057h2.766s1.819.016 1.819-1.472v-2.756l-6.036 2.114 1.451 2.114ZM331.871 191.012h3.452s1.45-.361 1.141-1.678l-5.172-49.369s-1.88-1.094-2.194-2.545l.866 4.957.922 48.282.985.353Z" clip-rule="evenodd"/><path fill="#ECBA0B" fill-rule="evenodd" d="M307.639 132.225v-.881s.287-.63 1.183-.63c0 0 9.444-.854 19.224.379 0 0 1.062.253 1.062.692v1.501h-4.344l-.402 1.131-11.831-.236-4.199-.532-.693-1.424Z" clip-rule="evenodd"/><path fill="#FEC803" fill-rule="evenodd" d="m305.513 140.801-5.091 54.967s.38 1.536 1.463 1.536h5.29s1.94.002 1.94-.959l.384-5.009s.296-1.538 1.543-1.538c0 0 4.998-.656 11.15.458 0 0 .929.663.929 1.66v4.429s.166 1.16 1.519 1.513h5.438s2.112-.036 1.767-2.09l-1.084-54.967s-1.967-2.063-1.558-4.991h-4.563v.762h.603v4.229h-1.455s-.862.092-1.229-.717c0 0-.758-.959-1.41-.959h-5.64s-1.542.293-2.269 1.676h-1.737v-4.229h.843v-.762h-4.295s-.189 1.964-.876 3.315c-.687 1.352-1.662 1.676-1.662 1.676Z" clip-rule="evenodd"/><path fill="#FADD01" fill-rule="evenodd" d="m308.421 141.676 18.087.452s2.523-.139 2.523 2.485l.831 43s-.752 1.855-2.26 1.211c0 0-10.856-3.631-22.646-.527 0 0-2.045.119-2.045-1.269l4.048-43.635s.066-.859.412-1.265c.345-.406 1.05-.452 1.05-.452Z" clip-rule="evenodd"/><path fill="#EDAF00" fill-rule="evenodd" d="M307.896 132.828s-.954 1.683-.179 3.203h4.691s.583-1.399.218-3.203h-4.73ZM324.332 135.963s-.474-1.511 0-3.019h4.986s.62 1.094 0 3.019h-4.986Z" clip-rule="evenodd"/><path fill="#3E3E3E" fill-rule="evenodd" d="m313.18 165.574.197 3.116 2.161 1.381s.699-.038.479-.71l-1.804-1.078v-1.281l3.301 1.688.749.476 1.614 2.514s.763.424 1.004-.438l-1.402-2.402-1.493-1.12s-.022-.463.277-.718l1.216-.699 1.144 1.417s1.057.22 1.057-.599l-1.664-1.997s-.511-.291-.909 0l-1.593 1.179s-.319.146-.699 0l-1.516-1.004s-.24-.488 0-.838l.718-1.325-.718-2.094s-.711-.317-.899.351l.627 1.568-.814 1.5s-.109.469-.578.469l-.455.644Z" clip-rule="evenodd"/><circle cx="312.84" cy="165.02" r="1.02" fill="#3E3E3E"/><path stroke="#3E3E3E" stroke-width="1.36" d="M315.377 156.399a1.02 1.02 0 0 1 1.736-.017l9.972 15.807a1.02 1.02 0 0 1-.878 1.564l-19.347-.294a1.02 1.02 0 0 1-.857-1.547l9.374-15.513Z" clip-rule="evenodd"/><path stroke="#3E3E3E" stroke-linecap="round" stroke-width="1.02" d="m311.672 172.008 9.129.156"/><path fill="#C6C6C6" fill-rule="evenodd" d="m28.921 113.862 3.16-.36-.213-.88-4.437.432 1.49.808Z" clip-rule="evenodd"/><path fill="#7AC57C" fill-rule="evenodd" d="M33.767 113.547s.558.502 1.529.251l2.042-10.542.49-2.921-.241-1.443s-1.529 1.304-1.79 2.704l-2.03 7.602-.583 2.991.584 1.358Z" clip-rule="evenodd"/><path fill="#7BCD7E" fill-rule="evenodd" d="M26.619 70.245s-.015 1.9 1.551 7.342c0 0 3.078 13.82 3.332 15.95 0 0 .39 3.246.892 4.192l.641 1.376v6.409l-.641-.853-3.56-8.163s-.534-3.404-.86-4.425c0 0-1.143-4.859-1.25-6.33 0 0-.746-5.39-.746-7.791 0 0 .04-3.643-.144-5.12 0 0 .023-1.974.404-2.587 0 0 .155-.313.345-.091l.036.09Z" clip-rule="evenodd"/><path fill="#89DE8C" fill-rule="evenodd" d="M25.008 89.324s.361 1.269.782 1.992c0 0 4.06 10.473 5.766 21.37 0 0 .125 1.133.275 1.425 0 0 1.521.433 1.926-.268 0 0 .213-7.511-2.29-13.207 0 0-3.548-7.611-5.494-10.35l-.965-.962Z" clip-rule="evenodd"/><path fill="#C6C6C6" fill-rule="evenodd" d="m41.389 113.853 2.967.252.642-.645-3.559-.741-.05 1.134Z" clip-rule="evenodd"/><path fill="#7BCD7E" fill-rule="evenodd" d="M41.679 103.623s.193 2.163.193 2.352c0 0-.193 5.856-.88 8.631 0 0-1.876.408-2.916-.559l1.602-7.281 2-3.143Z" clip-rule="evenodd"/><path fill="#89D58C" fill-rule="evenodd" d="M32.894 104.786s-.765-6.165 0-10.511c0 0 1.059-8.896.194-11.196 0 0-.04-.298.187-.196 0 0 .7 2.665.7 3.6 0 0 .59 1.641.59 2.828 0 0 .233 1.124.993 2.817 0 0 1.176 2.878.588 9.142 0 0-.464 4.917-1.39 6.866 0 0-1.042 2.91-1.042 3.22l-.82-6.57Z" clip-rule="evenodd"/><path fill="#89DE8C" fill-rule="evenodd" d="M35.273 113.903s.361-5.174.361-6.98c0 0 .266-3.325 2.337-8.687 0 0 1.94-5.003 2.184-5.328 0 0 1.81-2.712 2.122-2.995 0 0 .254-.158.254.187 0 0-.056.914.235 1.861 0 0 .477 3.587-.235 5.607 0 0 .08 5.206-2.376 9.533 0 0-.064 3.528-2.184 7.35 0 0-.628.581-1.797.29 0 0-.384-.145-.54-.29-.145-.134-.36-.548-.36-.548Z" clip-rule="evenodd"/><path fill="#72BE74" fill-rule="evenodd" d="M36.652 81.046s1.294 2.063 1.64 4.93c0 0 .375 3.498.55 3.64l-.866 5.601-.382-.958s.054-1.326-.367-2.119c0 0 .012-.663.127-1.972 0 0-.128-1.236-.52-1.789 0 0-.573-1.507-.44-2.403 0 0 .058-1.794-.13-3.135 0 0-.128-.942.13-1.481 0 0 .065-.261.108-.314.043-.052.15 0 .15 0ZM43.239 90.99s3.039-4.497 2.652-8.502c0 0-2.452 4.153-2.452 7.315l-.2 1.187Z" clip-rule="evenodd"/><path fill="#89D58C" fill-rule="evenodd" d="M45.574 86.07s-1.1 4.84-1.508 6.443c0 0-.681 4.565-.681 5.63 0 0-.154 2.225 0 3.007 0 0-.355 3.704-1.244 6.357 0 0-.648 6.239-.83 7.159 0 0-.123.113-.34 0 0 0 .984-6.791.886-8.997l-.197-2.047L42.77 91.9s.542-1.067.747-1.35c0 0 .78-1.323 1.174-2.18.292-.635.884-2.3.884-2.3Z" clip-rule="evenodd"/><path fill="#7BCD7E" fill-rule="evenodd" d="M36.82 101.244s.46-5.83 1.154-8.352c0 0 .664-2.358.664-2.962 0 0 1.223-4.3 2.148-5.816 0 0 1.987-3.95 2.316-4.785 0 0 .243-.6.382-.239 0 0 .212 1.039.212 1.841 0 0 .16 4.612-1.298 7.01 0 0-1.683 3.642-1.99 4.673l-3.589 9.204v-.574Z" clip-rule="evenodd"/><path fill="#F2F2F2" fill-rule="evenodd" d="M36.079 115.2s-1.333 8.944-.668 14.518l-6.22-2.128s-2.083-4.694-1.776-14.552l8.664 2.162Z" clip-rule="evenodd"/><path fill="#E0E0E0" fill-rule="evenodd" d="M45.011 113.458s.285 10.705-1.769 14.718l-7.842 1.547s-.793-8.225.66-14.557l8.951-1.708Z" clip-rule="evenodd"/></svg>