<svg xmlns="http://www.w3.org/2000/svg" width="158" height="46" fill="none">
  <g filter="url(#a)">
    <g filter="url(#b)">
      <path fill="#1736DA" d="M115.296 38h-10.608V25.184L91.5843 4.976h12.1917l6.336 10.992h.192l6.336-10.992h11.568l-12.912 20.208V38Z"/>
    </g>
    <path fill="#12153A" d="M86.6393 26.4287 84.7712 37.637h-7.1608l3.3209-19.9259h6.7977l-.6227 3.788h.2075c.6314-1.2713 1.5524-2.2615 2.7632-2.9707 1.2194-.7178 2.5642-1.0767 4.0345-1.0767 1.4096 0 2.5815.32 3.5155.9599.934.64 1.5956 1.5221 1.9848 2.6464.3892 1.1243.4582 2.4129.2076 3.8659L97.6919 37.637H90.531l1.8681-11.2083c.1643-.9859.0432-1.76-.3633-2.3221-.3978-.5622-1.0551-.8432-1.9718-.8432-.5794 0-1.1113.1297-1.5956.3891-.4757.2508-.8735.6141-1.1935 1.0897-.3113.4671-.5232 1.0292-.6356 1.6865ZM63.3026 37.9483c-1.2626 0-2.348-.2076-3.2561-.6227-.8994-.4237-1.5567-1.0637-1.9718-1.9199-.4065-.8649-.4973-1.9545-.2724-3.2691.1816-1.0897.5232-2.0194 1.0248-2.7891.5016-.7697 1.1243-1.401 1.868-1.894.7438-.493 1.5784-.8692 2.5037-1.1286.9341-.2681 1.92-.4411 2.9578-.5189 1.1243-.0865 2.0367-.1946 2.7372-.3243.7005-.1297 1.2237-.307 1.5697-.5319.3459-.2249.5535-.5275.6227-.9081v-.0519c.0778-.5189-.0606-.9167-.4152-1.1934-.3459-.2768-.8302-.4152-1.4529-.4152-.6746 0-1.2583.1471-1.7513.4411-.4843.294-.8172.7524-.9989 1.3751h-6.59c.2767-1.2108.8432-2.3264 1.6994-3.3469.8648-1.0292 2.0107-1.8508 3.4377-2.4648 1.4356-.6227 3.148-.934 5.1371-.934 1.4184 0 2.6637.1686 3.7361.5059 1.0724.3286 1.9589.7913 2.6594 1.3881.7092.588 1.2065 1.2799 1.4919 2.0756.294.787.3632 1.6432.2075 2.5685L75.9639 37.637H69.27l.467-2.8021h-.1557c-.5189.7438-1.1026 1.3448-1.7512 1.8032-.64.4583-1.3405.7913-2.1016.9989-.7524.2075-1.561.3113-2.4259.3113Zm3.1134-4.5144c.5362 0 1.0638-.1125 1.5827-.3373.5189-.2249.9643-.5492 1.3362-.973.3719-.4237.6097-.9383.7135-1.5437l.2594-1.6605c-.1903.0778-.4021.1514-.6356.2205-.2249.0606-.4627.1211-.7135.1817-.2422.0605-.5016.1167-.7784.1686-.2681.0519-.5448.1038-.8302.1557-.5708.0865-1.0508.2292-1.44.4281-.3892.1902-.6919.4281-.9081.7135-.2162.2767-.3502.588-.4021.934-.0778.5448.0476.9686.3762 1.2713.3373.294.8173.4411 1.4399.4411ZM29.5955 21.0317h-7.2128c.0519-.614.0173-1.1675-.1037-1.6605-.1211-.4929-.3287-.9167-.6227-1.2713-.2941-.3632-.6789-.64-1.1546-.8302-.4756-.1903-1.0421-.2854-1.6994-.2854-1.2627 0-2.3913.3157-3.3858.947-.9946.6227-1.8205 1.5178-2.4778 2.6853-.6573 1.1589-1.1243 2.5426-1.401 4.1512-.2422 1.5567-.2508 2.8497-.026 3.8788.2335 1.0292.6876 1.7989 1.3621 2.3091.6833.5103 1.5697.7654 2.6594.7654.7265 0 1.3924-.0865 1.9978-.2594.614-.173 1.1589-.4195 1.6345-.7395.4843-.3286.8951-.7178 1.2324-1.1675.346-.4584.6097-.9643.7914-1.5178h7.2646c-.2768 1.1243-.7697 2.2745-1.4789 3.4507-.7091 1.1675-1.6259 2.2443-2.7502 3.2302-1.1242.9773-2.4475 1.7686-3.9696 2.374-1.5221.6054-3.2345.908-5.1371.908-2.4907 0-4.6399-.5448-6.44737-1.6345-1.79886-1.0897-3.10476-2.681-3.91771-4.7739-.8043-2.0929-.9643-4.6442-.47999-7.6538.48431-2.9059 1.43996-5.3404 2.86694-7.3036 1.42698-1.9632 3.16103-3.442 5.20203-4.4366 2.041-.9946 4.2117-1.4918 6.5122-1.4918 1.7383 0 3.295.2291 4.6701.6875 1.3838.4584 2.547 1.1286 3.4896 2.0108.9514.8734 1.6519 1.9502 2.1016 3.2301.4497 1.28.6097 2.7459.48 4.3977Z"/>
    <path fill="#12153A" fill-rule="evenodd" d="m37.8015 24.266 2.1909-13.1972h-7.1608l-4.4107 26.5679h7.1609l1.8474-11.1284-1.4756-.9838c-.1278-.0852-.1159-.2766.0214-.3453l1.8265-.9132Zm3.805 12.5148c1.401.8129 3.1653 1.2194 5.2928 1.2194 1.8507 0 3.5069-.2767 4.9685-.8302 1.4702-.5622 2.7069-1.3492 3.7101-2.361 1.0119-1.0206 1.7513-2.2227 2.2183-3.6064H51.258c-.2075.3805-.4843.7048-.8302.9729-.3373.2595-.7265.4584-1.1675.5968-.4324.1297-.8908.1945-1.3751.1945-.7092 0-1.2886-.1426-1.7383-.428-.4498-.2854-.7654-.6789-.947-1.1805-.1817-.5017-.2206-1.0724-.1168-1.7124l.0584-.3114h12.9661l.2594-1.6605c.2595-1.5826.2595-3.0009 0-4.255-.2508-1.2626-.7351-2.3393-1.4529-3.2301-.7178-.8908-1.6475-1.5697-2.7891-2.0367-1.133-.467-2.4518-.7005-3.9566-.7005-2.0584 0-3.9178.4281-5.5783 1.2842-1.6518.8562-3.0226 2.054-4.1123 3.5934-.3836.5464-.721 1.1254-1.012 1.7371l2.1359 1.0679c.1021.051.1326.166.0951.2566-.0191.0463-.056.0863-.1103.108l-.717.2868-2.3282.9313c-.0782.3291-.1462.6654-.2039 1.0089-.3633 2.1448-.2595 3.9869.3113 5.5263.5708 1.5308 1.5567 2.707 2.9578 3.5286Zm4.277-11.3899h6.2567c.0865-.5708.0303-1.0724-.1687-1.5048-.1902-.4411-.4972-.7827-.921-1.0249-.4151-.2508-.9167-.3762-1.5048-.3762s-1.1416.1254-1.6605.3762c-.5103.2508-.947.6011-1.3102 1.0508-.3342.4238-.5647.9168-.6915 1.4789Z" clip-rule="evenodd"/>
    <path fill="#12153A" d="M45.2539 10.3485c.0416-.1714.2685-.209.3631-.0602l.9162 1.4414a.20012.20012 0 0 0 .1217.0871l1.6597.4027c.1714.0416.209.2685.0602.3631l-1.4414.9163c-.0437.0277-.0749.0713-.0871.1216l-.4027 1.6597c-.0416.1714-.2685.209-.3631.0602l-.9162-1.4414c-.0278-.0436-.0714-.0749-.1217-.0871l-1.6597-.4027c-.1714-.0416-.209-.2685-.0602-.3631l1.4414-.9162a.20012.20012 0 0 0 .0871-.1217l.4027-1.6597Zm5.5293-8.92347c.0416-.17139.2685-.20897.3631-.06013l2.128 3.34761c.0278.04366.0713.07487.1216.08707l3.8549.93532c.1714.04159.209.26854.0601.36315l-3.3476 2.12797a.199918.199918 0 0 0-.0871.12163l-.9353 3.85485c-.0416.1714-.2685.209-.3631.0601l-2.128-3.34757c-.0278-.04366-.0714-.07487-.1216-.08707l-3.8549-.93532c-.1714-.04159-.209-.26854-.0601-.36315l3.3476-2.12797a.199918.199918 0 0 0 .0871-.12163l.9353-3.85486Z"/>
    <g filter="url(#c)">
      <path fill="#1736DA" d="m142.5 38-1.392-4.656H129.54L128.148 38H117.3l12.048-33.024h12.336L153.732 38H142.5Zm-10.752-12.048h7.152l-3.456-11.76h-.192l-3.504 11.76Z"/>
    </g>
  </g>
  <defs>
    <filter id="a" width="161" height="48" x="0" y="0" color-interpolation-filters="sRGB" filterUnits="userSpaceOnUse">
      <feFlood flood-opacity="0" result="BackgroundImageFix"/>
      <feColorMatrix in="SourceAlpha" result="hardAlpha" values="0 0 0 0 0 0 0 0 0 0 0 0 0 0 0 0 0 0 127 0"/>
      <feOffset dy="4"/>
      <feGaussianBlur stdDeviation="2"/>
      <feComposite in2="hardAlpha" operator="out"/>
      <feColorMatrix values="0 0 0 0 0 0 0 0 0 0 0 0 0 0 0 0 0 0 0.25 0"/>
      <feBlend in2="BackgroundImageFix" result="effect1_dropShadow_409_22"/>
      <feBlend in="SourceGraphic" in2="effect1_dropShadow_409_22" result="shape"/>
    </filter>
    <filter id="b" width="36.624" height="37.0239" x="91.5845" y="4.97607" color-interpolation-filters="sRGB" filterUnits="userSpaceOnUse">
      <feFlood flood-opacity="0" result="BackgroundImageFix"/>
      <feBlend in="SourceGraphic" in2="BackgroundImageFix" result="shape"/>
      <feColorMatrix in="SourceAlpha" result="hardAlpha" values="0 0 0 0 0 0 0 0 0 0 0 0 0 0 0 0 0 0 127 0"/>
      <feOffset dy="4"/>
      <feGaussianBlur stdDeviation="2"/>
      <feComposite in2="hardAlpha" k2="-1" k3="1" operator="arithmetic"/>
      <feColorMatrix values="0 0 0 0 0 0 0 0 0 0 0 0 0 0 0 0 0 0 0.25 0"/>
      <feBlend in2="shape" result="effect1_innerShadow_409_22"/>
    </filter>
    <filter id="c" width="36.4321" height="37.0239" x="117.3" y="4.97607" color-interpolation-filters="sRGB" filterUnits="userSpaceOnUse">
      <feFlood flood-opacity="0" result="BackgroundImageFix"/>
      <feBlend in="SourceGraphic" in2="BackgroundImageFix" result="shape"/>
      <feColorMatrix in="SourceAlpha" result="hardAlpha" values="0 0 0 0 0 0 0 0 0 0 0 0 0 0 0 0 0 0 127 0"/>
      <feOffset dy="4"/>
      <feGaussianBlur stdDeviation="2"/>
      <feComposite in2="hardAlpha" k2="-1" k3="1" operator="arithmetic"/>
      <feColorMatrix values="0 0 0 0 0 0 0 0 0 0 0 0 0 0 0 0 0 0 0.25 0"/>
      <feBlend in2="shape" result="effect1_innerShadow_409_22"/>
    </filter>
  </defs>
</svg>
